<svg xmlns="http://www.w3.org/2000/svg" viewBox="0 0 363.97 364.11"><defs><style>.cls-1{fill:#00c421;}</style></defs><g id="Calque_2" data-name="Calque 2"><g id="logo_sidaction" data-name="logo sidaction"><path class="cls-1" d="M147.63,364.11a147.69,147.69,0,0,1-117-57.67,145,145,0,0,1-26-53.28,147.42,147.42,0,0,1-3.08-58.24A144,144,0,0,1,27,131.33a146.47,146.47,0,0,1,50.67-45,144.1,144.1,0,0,1,66.86-17.46,150.91,150.91,0,0,1,37.44,3.87,146.2,146.2,0,0,1,55.41,26.37c3.7,2.82,3.88,5.3.59,8.65q-3.09,3.14-6.2,6.26c-2.1,2.1-4.42,2.31-6.75.52a124.87,124.87,0,0,0-49.8-23.06,130.17,130.17,0,0,0-50.22-1,124.46,124.46,0,0,0-44.9,17.24,127,127,0,0,0-34.07,31,124.76,124.76,0,0,0-23.19,50A127.76,127.76,0,0,0,131.51,343.16a127.2,127.2,0,0,0,48.26-3.06,125,125,0,0,0,41.82-19.42A127.16,127.16,0,0,0,259,279.3a124.08,124.08,0,0,0,14.45-39.76,129.82,129.82,0,0,0-1.17-51.87,120.08,120.08,0,0,0-14.41-36c-2.61-4.29-5.53-8.39-8.39-12.52-1.71-2.48-1.58-4.77.61-7l6.85-6.79c2.21-2.2,4.65-2.39,6.73,0a91.21,91.21,0,0,1,6.89,9.21,144.83,144.83,0,0,1,21.79,52.48,149,149,0,0,1,.9,53.6,143.62,143.62,0,0,1-10,34.29,146,146,0,0,1-27.44,41.88,148,148,0,0,1-39,30,146,146,0,0,1-53.17,16.25C158.25,363.71,152.93,363.8,147.63,364.11Z"/><path class="cls-1" d="M147.51,321.29A105.16,105.16,0,0,1,54.25,264c-9.67-18.85-12.93-38.87-10.65-59.82a101.46,101.46,0,0,1,19.87-50.25,104.56,104.56,0,0,1,27.11-25.35,101.4,101.4,0,0,1,41.57-15.75c19.44-2.76,38.4-.73,56.44,7.28a195.33,195.33,0,0,1,17.69,9.49c4.29,2.45,4.55,5.21,1.17,8.74q-3.13,3.24-6.37,6.39c-2.15,2.09-4.09,2.3-6.61.65a82.73,82.73,0,0,0-34.79-13.14,85.05,85.05,0,0,0-87.21,44.23A81.8,81.8,0,0,0,62.79,222c1.91,26.2,13.49,47.31,34.54,63C114.48,297.67,134,303,155.2,301c24-2.2,43.77-12.81,58.88-31.65,14-17.42,19.84-37.49,18.3-59.66A81.51,81.51,0,0,0,220,171.64c-.52-.83-1.07-1.64-1.56-2.49a4.54,4.54,0,0,1,.64-5.94c2.47-2.57,5-5.1,7.6-7.53,2.38-2.21,4.94-2.08,6.79.66a126,126,0,0,1,7.47,12.36c8.62,16.57,12.14,34.28,11.3,52.88a104.51,104.51,0,0,1-44.64,80.76,100.11,100.11,0,0,1-45.65,17.71C157.13,320.64,152.31,320.89,147.51,321.29Z"/><path class="cls-1" d="M323.82,40.21c5.06-.87,9.8-1.67,14.53-2.51,6.59-1.17,13.18-2.4,19.78-3.55,2.61-.45,4.52.48,5.44,2.49s.3,3.8-1.54,5.63Q349.27,55,336.53,67.77c-9.74,9.74-19.64,19.32-29.16,29.26-3.56,3.72-7.11,4.5-11.83,3s-9.46-2.43-14.24-3.48a3.21,3.21,0,0,0-2.5.7c-9.28,9.2-18.48,18.48-27.72,27.71q-25.52,25.5-51.05,51-15,15-30,29.94a2.28,2.28,0,0,0-.51,2.75c3.89,12.2-1.54,24.4-13,29.21a23.53,23.53,0,0,1-26.43-6.07c-6.31-7-7.69-18.24-3.22-26.25,5.12-9.17,14.66-13.84,24.66-12a4.06,4.06,0,0,1,1.23.21c3.21,1.73,5.24.31,7.57-2.07,12.23-12.49,24.63-24.8,37-37.15l39.19-39.13q11.72-11.7,23.41-23.44c2.22-2.22,4.43-4.46,6.72-6.61a2.46,2.46,0,0,0,.74-2.76c-1.41-5.41-2.61-10.87-4-16.27-.92-3.49,0-6.18,2.59-8.68,6.9-6.74,13.66-13.63,20.49-20.45q14.31-14.3,28.65-28.57,3.27-3.25,6.5-6.55c1.92-2,3.88-2.51,5.8-1.57s2.82,2.95,2.33,5.73l-5.46,30.94C324.17,38,324,38.9,323.82,40.21Z"/><path class="cls-1" d="M148.77,278.45c-20.1-.52-35.91-7.62-48.3-22C88.91,243,84.19,227.23,86,209.74c1.91-18,10.39-32.57,25-43.36,12.56-9.28,26.79-13,42.27-11.72a57.53,57.53,0,0,1,22.59,6.59c2.9,1.54,3.65,4.52,1.48,7-2.75,3.07-5.67,6-8.7,8.77-1.38,1.27-3.23,1.05-5,.34a42.18,42.18,0,0,0-28.31-1.41c-15.42,4.39-27.76,18.63-29.68,34.63-2,16.52,3.73,30,17,40,14.22,10.69,34.06,10.8,48.78.79a42.34,42.34,0,0,0,15.4-50.47c-1.1-2.74-.88-4.89,1.43-6.93s4.54-4.55,6.82-6.82c2.69-2.67,6.07-2.19,7.7,1.19,9.73,20.09,9.36,40.13-1.78,59.38-9.88,17-25,27.1-44.7,30C153.44,278.05,150.51,278.26,148.77,278.45Z"/></g></g></svg>