<svg xmlns="http://www.w3.org/2000/svg" viewBox="0 0 368.98 553.48"><defs><style>.cls-1{fill:#e2001a;}.cls-1,.cls-3,.cls-4{stroke:#000;stroke-miterlimit:10;}.cls-2,.cls-3{font-size:10.06px;font-family:MyriadPro-Regular, Myriad Pro;}.cls-3{stroke-width:0.25px;}.cls-4{fill:none;}.cls-5{fill:#870014;}</style></defs><g id="Calque_2" data-name="Calque 2"><g id="logo_sidaction" data-name="logo sidaction"><path id="path3135" class="cls-1" d="M189.25,296.12a230.89,230.89,0,0,0,16.51-20.57c5.21-7.28,8.71-18.33,8.47-25.23-.68-18.77-13.22-23-25.23-23.87-10-.74-28.46,1.72-30.5,27.14-1.14,14.19,6.59,29.16,18.18,42.3a277.17,277.17,0,0,1-28.89,24.53,31.82,31.82,0,0,0,7.21,6.72,252.44,252.44,0,0,0,28.12-24.51,139.62,139.62,0,0,0,31.59,23c2.62-1,5.78-4.08,6.48-6.86-13.92-8.19-24.26-15.67-31.94-22.61m-21.57-41.33c-.36-11.33,8.28-21.13,19.78-20.22,10.32.81,17.79,4.87,17.61,16.9-.11,7.08-4.33,16.75-9.75,23.57-3.55,4.47-7.61,9.34-12.59,14.65-12-13.11-14.72-24.31-15-34.9"/><text class="cls-2" transform="matrix(-0.94, -0.33, -0.33, 0.94, 224.85, 174.45)">M</text><text class="cls-2" transform="matrix(-0.96, -0.27, -0.27, 0.96, 216.6, 171.62)">e</text><text class="cls-2" transform="matrix(-0.98, -0.2, -0.2, 0.98, 211.2, 170.07)">m</text><text class="cls-2" transform="matrix(-0.99, -0.14, -0.14, 0.99, 202.42, 168.3)">o</text><text class="cls-2" transform="matrix(-1, -0.09, -0.09, 1, 196.32, 167.5)">r</text><text class="cls-3" transform="matrix(-1, -0.06, -0.06, 1, 192.42, 167.16)">I</text><text class="cls-3" transform="matrix(-1, -0.02, -0.02, 1, 189.41, 166.96)">S</text><text class="cls-3" transform="matrix(-1, 0.03, 0.03, 1, 183.84, 166.86)">T</text><text class="cls-2" transform="matrix(-1, 0.07, 0.07, 1, 178.21, 167.05)"> </text><text class="cls-2" transform="matrix(-1, 0.09, 0.09, 1, 175.45, 167.25)"> </text><text class="cls-2" transform="matrix(-0.99, 0.14, 0.14, 0.99, 172.72, 167.43)">M</text><text class="cls-2" transform="matrix(-0.98, 0.21, 0.21, 0.98, 164.1, 168.74)">e</text><text class="cls-2" transform="matrix(-0.96, 0.27, 0.27, 0.96, 158.57, 169.87)">m</text><text class="cls-2" transform="matrix(-0.94, 0.34, 0.34, 0.94, 149.99, 172.37)">o</text><text class="cls-2" transform="matrix(-0.92, 0.38, 0.38, 0.92, 144.21, 174.49)">r</text><text class="cls-3" transform="matrix(-0.91, 0.41, 0.41, 0.91, 140.6, 175.99)">I</text><text class="cls-3" transform="matrix(-0.9, 0.45, 0.45, 0.9, 137.85, 177.22)">S</text><text class="cls-3" transform="matrix(-0.87, 0.49, 0.49, 0.87, 132.85, 179.72)">T</text><text class="cls-2" transform="matrix(-0.85, 0.52, 0.52, 0.85, 127.97, 182.51)"> </text><text class="cls-2" transform="matrix(-0.84, 0.54, 0.54, 0.84, 125.61, 183.97)"> </text><text class="cls-2" transform="matrix(-0.81, 0.59, 0.59, 0.81, 123.29, 185.4)">M</text><text class="cls-2" transform="matrix(-0.77, 0.64, 0.64, 0.77, 116.26, 190.6)">e</text><text class="cls-2" transform="matrix(-0.73, 0.69, 0.69, 0.73, 111.91, 194.16)">m</text><text class="cls-2" transform="matrix(-0.68, 0.74, 0.74, 0.68, 105.47, 200.37)">o</text><text class="cls-2" transform="matrix(-0.64, 0.77, 0.77, 0.64, 101.35, 204.91)">r</text><text class="cls-3" transform="matrix(-0.62, 0.79, 0.79, 0.62, 98.83, 207.94)">I</text><text class="cls-3" transform="matrix(-0.59, 0.81, 0.81, 0.59, 96.96, 210.3)">S</text><text class="cls-3" transform="matrix(-0.55, 0.84, 0.84, 0.55, 93.7, 214.81)">T</text><text class="cls-2" transform="matrix(-0.51, 0.86, 0.86, 0.51, 90.68, 219.54)"> </text><text class="cls-2" transform="matrix(-0.49, 0.87, 0.87, 0.49, 89.26, 221.92)"> </text><text class="cls-2" transform="matrix(-0.45, 0.9, 0.9, 0.45, 87.85, 224.3)">M</text><text class="cls-2" transform="matrix(-0.39, 0.92, 0.92, 0.39, 84.04, 232.12)">e</text><text class="cls-2" transform="matrix(-0.32, 0.95, 0.95, 0.32, 81.84, 237.3)">m</text><text class="cls-2" transform="matrix(-0.26, 0.97, 0.97, 0.26, 79.01, 245.8)">o</text><text class="cls-2" transform="matrix(-0.21, 0.98, 0.98, 0.21, 77.47, 251.74)">r</text><text class="cls-3" transform="matrix(-0.18, 0.98, 0.98, 0.18, 76.66, 255.59)">I</text><text class="cls-3" transform="matrix(-0.14, 0.99, 0.99, 0.14, 76.1, 258.56)">S</text><text class="cls-3" transform="matrix(-0.09, 1, 1, 0.09, 75.32, 264.06)">T</text><text class="cls-2" transform="matrix(-0.05, 1, 1, 0.05, 74.85, 269.67)"> </text><text class="cls-2" transform="matrix(-0.03, 1, 1, 0.03, 74.71, 272.44)"> </text><text class="cls-2" transform="matrix(0.02, 1, 1, -0.02, 74.57, 275.18)">M</text><text class="cls-2" transform="matrix(0.09, 1, 1, -0.09, 74.83, 283.9)">e</text><text class="cls-2" transform="matrix(0.15, 0.99, 0.99, -0.15, 75.28, 289.5)">m</text><text class="cls-2" transform="matrix(0.22, 0.98, 0.98, -0.22, 76.72, 298.36)">o</text><text class="cls-2" transform="matrix(0.26, 0.96, 0.96, -0.26, 78.11, 304.33)">r</text><text class="cls-3" transform="matrix(0.3, 0.96, 0.96, -0.3, 79.16, 308.1)">I</text><text class="cls-3" transform="matrix(0.33, 0.94, 0.94, -0.33, 80.04, 310.99)">S</text><text class="cls-3" transform="matrix(0.38, 0.92, 0.92, -0.38, 81.91, 316.23)">T</text><text class="cls-2" transform="matrix(0.42, 0.91, 0.91, -0.42, 84.09, 321.42)"> </text><text class="cls-2" transform="matrix(0.44, 0.9, 0.9, -0.44, 85.25, 323.94)"> </text><text class="cls-2" transform="matrix(0.49, 0.87, 0.87, -0.49, 86.4, 326.43)">M</text><text class="cls-2" transform="matrix(0.54, 0.84, 0.84, -0.54, 90.69, 334.01)">e</text><text class="cls-2" transform="matrix(0.6, 0.8, 0.8, -0.6, 93.71, 338.78)">m</text><text class="cls-2" transform="matrix(0.65, 0.76, 0.76, -0.65, 99.1, 345.93)">o</text><text class="cls-2" transform="matrix(0.68, 0.73, 0.73, -0.68, 103.11, 350.56)">r</text><text class="cls-3" transform="matrix(0.71, 0.71, 0.71, -0.71, 105.81, 353.43)">I</text><text class="cls-3" transform="matrix(0.73, 0.68, 0.68, -0.73, 107.93, 355.57)">S</text><text class="cls-3" transform="matrix(0.77, 0.64, 0.64, -0.77, 112.01, 359.34)">T</text><text class="cls-2" transform="matrix(0.79, 0.61, 0.61, -0.79, 116.34, 362.92)"> </text><text class="cls-2" transform="matrix(0.81, 0.59, 0.59, -0.81, 118.55, 364.62)"> </text><text class="cls-2" transform="matrix(0.83, 0.55, 0.55, -0.83, 120.72, 366.3)">M</text><text class="cls-2" transform="matrix(0.87, 0.49, 0.49, -0.87, 128.05, 371.05)">e</text><text class="cls-2" transform="matrix(0.9, 0.44, 0.44, -0.9, 132.9, 373.85)">m</text><text class="cls-2" transform="matrix(0.93, 0.37, 0.37, -0.93, 141, 377.7)">o</text><text class="cls-2" transform="matrix(0.94, 0.33, 0.33, -0.94, 146.71, 379.95)">r</text><text class="cls-3" transform="matrix(0.95, 0.3, 0.3, -0.95, 150.43, 381.23)">I</text><text class="cls-3" transform="matrix(0.97, 0.26, 0.26, -0.97, 153.29, 382.14)">S</text><text class="cls-3" transform="matrix(0.98, 0.21, 0.21, -0.98, 158.67, 383.58)">T</text><text class="cls-2" transform="matrix(0.98, 0.17, 0.17, -0.98, 164.16, 384.73)"> </text><text class="cls-2" transform="matrix(0.99, 0.15, 0.15, -0.99, 166.92, 385.21)"> </text><text class="cls-2" transform="matrix(1, 0.1, 0.1, -1, 169.6, 385.68)">M</text><text class="cls-2" transform="matrix(1, 0.03, 0.03, -1, 178.3, 386.46)">e</text><text class="cls-2" transform="matrix(1, -0.03, -0.03, -1, 183.93, 386.68)">m</text><text class="cls-2" transform="matrix(0.99, -0.1, -0.1, -0.99, 192.89, 386.32)">o</text><text class="cls-2" transform="matrix(0.99, -0.15, -0.15, -0.99, 198.98, 385.67)">r</text><text class="cls-3" transform="matrix(0.98, -0.18, -0.18, -0.98, 202.84, 385.08)">I</text><text class="cls-3" transform="matrix(0.98, -0.22, -0.22, -0.98, 205.84, 384.56)">S</text><text class="cls-3" transform="matrix(0.96, -0.26, -0.26, -0.96, 211.26, 383.35)">T</text><text class="cls-2" transform="matrix(0.95, -0.3, -0.3, -0.95, 216.67, 381.82)"> </text><text class="cls-2" transform="matrix(0.95, -0.33, -0.33, -0.95, 219.32, 380.97)"> </text><text class="cls-2" transform="matrix(0.93, -0.38, -0.38, -0.93, 221.92, 380.14)">M</text><text class="cls-2" transform="matrix(0.9, -0.44, -0.44, -0.9, 229.98, 376.8)">e</text><text class="cls-2" transform="matrix(0.87, -0.49, -0.49, -0.87, 235.06, 374.39)">m</text><text class="cls-2" transform="matrix(0.83, -0.55, -0.55, -0.83, 242.82, 369.9)">o</text><text class="cls-2" transform="matrix(0.81, -0.59, -0.59, -0.81, 247.9, 366.48)">r</text><text class="cls-3" transform="matrix(0.79, -0.62, -0.62, -0.79, 251.08, 364.14)">I</text><text class="cls-3" transform="matrix(0.76, -0.65, -0.65, -0.76, 253.46, 362.3)">S</text><text class="cls-3" transform="matrix(0.73, -0.68, -0.68, -0.73, 257.7, 358.7)">T</text><text class="cls-2" transform="matrix(0.7, -0.71, -0.71, -0.7, 261.77, 354.83)"> </text><text class="cls-2" transform="matrix(0.69, -0.73, -0.73, -0.69, 263.72, 352.85)"> </text><text class="cls-2" transform="matrix(0.65, -0.76, -0.76, -0.65, 265.64, 350.91)">M</text><text class="cls-2" transform="matrix(0.6, -0.8, -0.8, -0.6, 271.24, 344.2)">e</text><text class="cls-2" transform="matrix(0.54, -0.84, -0.84, -0.54, 274.62, 339.71)">m</text><text class="cls-2" transform="matrix(0.48, -0.88, -0.88, -0.48, 279.42, 332.15)">o</text><text class="cls-2" transform="matrix(0.44, -0.9, -0.9, -0.44, 282.35, 326.75)">r</text><text class="cls-3" transform="matrix(0.41, -0.91, -0.91, -0.41, 284.06, 323.24)">I</text><text class="cls-3" transform="matrix(0.38, -0.93, -0.93, -0.38, 285.33, 320.49)">S</text><text class="cls-3" transform="matrix(0.33, -0.94, -0.94, -0.33, 287.41, 315.33)">T</text><text class="cls-2" transform="matrix(0.29, -0.96, -0.96, -0.29, 289.24, 309.99)"> </text><text class="cls-2" transform="matrix(0.27, -0.96, -0.96, -0.27, 290.03, 307.36)"> </text><text class="cls-2" transform="matrix(0.22, -0.98, -0.98, -0.22, 290.84, 304.71)">M</text><text class="cls-2" transform="matrix(0.15, -0.99, -0.99, -0.15, 292.67, 296.18)">e</text><text class="cls-2" transform="matrix(0.09, -1, -1, -0.09, 293.56, 290.64)">m</text><text class="cls-2" transform="matrix(0.02, -1, -1, -0.02, 294.27, 281.72)">o</text><text class="cls-2" transform="matrix(-0.03, -1, -1, 0.03, 294.36, 275.58)">r</text><text class="cls-3" transform="matrix(-0.06, -1, -1, 0.06, 294.24, 271.65)">I</text><text class="cls-3" transform="matrix(-0.1, -1, -1, 0.1, 294.08, 268.63)">S</text><text class="cls-3" transform="matrix(-0.15, -0.99, -0.99, 0.15, 293.54, 263.08)">T</text><text class="cls-2" transform="matrix(-0.18, -0.98, -0.98, 0.18, 292.68, 257.54)"> </text><text class="cls-2" transform="matrix(-0.21, -0.98, -0.98, 0.21, 292.16, 254.81)"> </text><text class="cls-2" transform="matrix(-0.26, -0.97, -0.97, 0.26, 291.66, 252.13)">M</text><text class="cls-2" transform="matrix(-0.32, -0.95, -0.95, 0.32, 289.33, 243.71)">e</text><text class="cls-2" transform="matrix(-0.38, -0.92, -0.92, 0.38, 287.56, 238.39)">m</text><text class="cls-2" transform="matrix(-0.45, -0.89, -0.89, 0.45, 284.04, 230.13)">o</text><text class="cls-2" transform="matrix(-0.49, -0.87, -0.87, 0.49, 281.25, 224.65)">r</text><text class="cls-3" transform="matrix(-0.52, -0.86, -0.86, 0.52, 279.33, 221.25)">I</text><text class="cls-3" transform="matrix(-0.55, -0.84, -0.84, 0.55, 277.78, 218.65)">S</text><text class="cls-3" transform="matrix(-0.59, -0.81, -0.81, 0.59, 274.71, 213.99)">T</text><text class="cls-2" transform="matrix(-0.62, -0.78, -0.78, 0.62, 271.38, 209.49)"> </text><text class="cls-2" transform="matrix(-0.64, -0.77, -0.77, 0.64, 269.64, 207.32)"> </text><text class="cls-2" transform="matrix(-0.68, -0.73, -0.73, 0.68, 267.94, 205.18)">M</text><text class="cls-2" transform="matrix(-0.73, -0.69, -0.69, 0.73, 261.96, 198.81)">e</text><text class="cls-2" transform="matrix(-0.77, -0.64, -0.64, 0.77, 257.91, 194.91)">m</text><text class="cls-2" transform="matrix(-0.81, -0.59, -0.59, 0.81, 250.98, 189.24)">o</text><text class="cls-2" transform="matrix(-0.84, -0.55, -0.55, 0.84, 245.98, 185.68)">r</text><text class="cls-3" transform="matrix(-0.85, -0.52, -0.52, 0.85, 242.69, 183.54)">I</text><text class="cls-3" transform="matrix(-0.87, -0.49, -0.49, 0.87, 240.11, 181.95)">S</text><text class="cls-3" transform="matrix(-0.9, -0.44, -0.44, 0.9, 235.26, 179.26)">T</text><text class="cls-2" transform="matrix(-0.91, -0.41, -0.41, 0.91, 230.18, 176.8)"> </text><text class="cls-2" transform="matrix(-0.92, -0.38, -0.38, 0.92, 227.66, 175.68)"> </text><circle class="cls-4" cx="184.49" cy="276.74" r="97.78"/><path class="cls-5" d="M369,0V553.48H329.11c-16.06-42-29.41-98.12-17.72-160.08,10.77-57.07,32.56-64.86,35.43-116.66,3.69-66.55-30.37-87.94-35.43-161.8-3.33-48.58,8-89,17.72-114.94Z"/><path class="cls-5" d="M0,0V553.48H39.87c16.06-42,29.41-98.12,17.72-160.08C46.82,336.33,25,328.54,22.16,276.74c-3.69-66.55,30.37-87.94,35.43-161.8,3.33-48.58-8-89-17.72-114.94Z"/></g></g></svg>