<svg xmlns="http://www.w3.org/2000/svg" viewBox="0 0 500.22 358.9"><defs><style>.cls-1{fill:#e2001a;}</style></defs><g id="Calque_2" data-name="Calque 2"><g id="logo_sidaction" data-name="logo sidaction"><path class="cls-1" d="M500.22,177.63c-.94,15-.61,28.79-2.93,42.16-4,22.87-13.77,43.39-30.09,60.32-10.86,11.26-24.95,14.82-39.94,17.34-43.56,7.34-86.24,18.47-128.2,32.28-5.09,1.67-9.53,5.23-14.5,7.41a205.94,205.94,0,0,1-21.3,8.45c-25.52,8.06-51.69,13.85-78.47,13.27-17.51-.38-35-3.72-52.41-6.58-20-3.3-40-7.32-58.85-15.23-9.07-3.8-16.79-9.15-22.74-17.28A113.57,113.57,0,0,0,15.28,288c-7.19-4.11-11.34-9.91-12.44-17.63C1.39,260.16,0,249.86,0,239.6c0-26.84,1.43-53.63,6.69-80C7.85,153.74,10,148.09,12,142.46c3-8.37,5-16.58,4-25.81-.52-4.75,2.07-10.4,4.63-14.84,9.79-16.92,23.35-30.68,38-43.4,1.77-1.52,3.6-3,5.45-4.39A61.09,61.09,0,0,1,92.51,42c18.12-3,35.92-8.43,53.5-14,15.2-4.8,29.61-12.17,44.89-16.64C219.14,3.07,248-1.69,277.68.55a54.66,54.66,0,0,1,24,7.61C322.8,20.56,346,27.92,369.4,34.61c8,2.29,16.14,4,24.24,5.91,14.18,3.26,28.36,3.63,42.53-.09,1.6-.43,3.29-.52,4.93-.8,21.57-3.66,37.11,5,45,29.11,4.68,14.27,7.22,29.45,9,44.42C497.65,135,498.65,157,500.22,177.63ZM249.63,129.17c2.29,32.54,10.4,61.49,19.47,90.3a38.92,38.92,0,0,0,20.29,24c3.55,1.83,7.09,3.72,10.78,5.22,17.26,7,34.48,14.18,51.91,20.75a81.72,81.72,0,0,0,19.36,4.5c20.75,2.4,35.82-10.89,36.45-31.57,0-1.32.2-2.65.36-4,3.33-26.09,6.95-52.15,9.8-78.29.82-7.47.74-15.54-1.21-22.72a144.23,144.23,0,0,0-22-46.73c-21-29.24-57.75-39.12-90.65-24.43-17.77,7.93-32.38,20.22-46,33.84a25.29,25.29,0,0,0-7.49,15.37C250,120.74,249.84,126.07,249.63,129.17Zm-155.11,42-1.52.09c.51,7.6.17,15.38,1.69,22.77,6.3,30.79,21.38,57.56,39.69,82.62,9,12.31,21.83,17.16,36.54,14.51,28.77-5.17,53.76-19,76.94-36.22a22.66,22.66,0,0,0,6.24-8.25c.77-1.58.1-4.29-.73-6.12-1.91-4.21-4.85-8-6.4-12.31-3.27-9.07-6.22-18.28-8.76-27.58-6.62-24.28-12.83-48.68-12.43-74.11.14-8.74.83-17.54,5.95-25.22a3.26,3.26,0,0,0,.3-2.68c-4.32-8.92-9.85-17.17-20-19.64a162.75,162.75,0,0,0-45-4.82c-8.06.31-15.66,2.12-22.05,6.92-13,9.79-25.6,20.17-38.56,30.06-11.82,9-14.49,21.22-13.33,35.1C93.73,154.57,94,162.87,94.52,171.17Z"/><path class="cls-1" d="M184.57,114.8c-6.65-.08-11.34-5-11.32-12s4.93-13.15,10.44-13c7.45.23,14.41,6.68,14.41,13.33C198.09,108.88,191.11,114.87,184.57,114.8Z"/><path class="cls-1" d="M138.15,131c7.1.16,11.88,5.1,11.76,12.17-.1,5.69-6.95,12.07-12.79,11.92-6.53-.16-12.47-6-12.38-12.08C124.84,136.26,130.88,130.85,138.15,131Z"/><path class="cls-1" d="M162.82,191c-6.85-.05-12.51-5.26-12.6-11.59-.09-6.07,5.81-11.43,12.66-11.51,6.59-.08,12.78,6.36,12.83,13.34C175.74,186.79,170.1,191.06,162.82,191Z"/><path class="cls-1" d="M205.56,258.05A11.32,11.32,0,0,1,194,269.75a12.14,12.14,0,0,1-12.1-12c-.08-6.47,4.5-12,10.07-12.14C199.06,245.4,205.49,251.28,205.56,258.05Z"/><path class="cls-1" d="M156.9,263.63a12.23,12.23,0,0,1-12.11-12.56c.09-5.83,5.71-10.8,12.15-10.74,7,.06,11.7,5,11.58,12.19A11.28,11.28,0,0,1,156.9,263.63Z"/><path class="cls-1" d="M209.83,184.42c0,6.62-3.23,11.7-7.43,12.52s-10.72-2.86-12.22-7.63a22.43,22.43,0,0,1-.92-11.1c1-4.47,4.77-7.15,9.62-7.26,4.14-.09,9.12,4.27,10.32,8.86A31.37,31.37,0,0,1,209.83,184.42Z"/><path class="cls-1" d="M211.63,162.57a11.57,11.57,0,1,1,0-23.14,11.57,11.57,0,1,1,0,23.14Z"/><path class="cls-1" d="M116.46,181.35a11.79,11.79,0,0,1,11.79-11.67c5.71-.08,11.38,6.45,11.23,12.95-.13,5.93-5.32,10.69-11.55,10.62A11.61,11.61,0,0,1,116.46,181.35Z"/><path class="cls-1" d="M131.13,229.54a10.06,10.06,0,0,1-10.35-10.34,13.05,13.05,0,0,1,12.75-12.67c6.34-.13,10.87,3.85,10.95,9.62C144.57,223.09,138.21,229.46,131.13,229.54Z"/><path class="cls-1" d="M189.58,136a11.6,11.6,0,1,1-11.73-11.61A11.37,11.37,0,0,1,189.58,136Z"/><path class="cls-1" d="M147.27,99.82c6.71-.07,11.16,3.93,11.12,10,0,6.27-6.07,11.62-13.12,11.64A10.42,10.42,0,0,1,134.9,111C134.8,105.16,140.64,99.9,147.27,99.82Z"/><path class="cls-1" d="M164.35,221.11c.06-7.19,4.42-11.69,11.35-11.71,6.31,0,11.33,4.12,11.44,9.43.12,5.92-6.8,12.52-13.23,12.6C168.06,231.51,164.29,227.44,164.35,221.11Z"/><path class="cls-1" d="M215.32,229.74c-7-.05-12-4.62-11.84-10.77.13-5.33,4.85-9.38,10.88-9.34,6.28.05,12.38,4.94,12.46,10C226.89,224.94,221.39,229.79,215.32,229.74Z"/></g></g></svg>