<svg xmlns="http://www.w3.org/2000/svg" viewBox="0 0 315.69 305.54"><defs><style>.cls-1{fill:none;stroke:#0025cb;stroke-miterlimit:10;stroke-width:13px;}</style></defs><g id="Calque_2" data-name="Calque 2"><g id="logo_sidaction" data-name="logo sidaction"><path class="cls-1" d="M6.92,62.69C23.34,66.28,38,61,52.38,55.2c21.4-8.57,41.44-19.83,60.76-32.34,4.58-3,8.43-7,12.9-10.19,5.63-4,11.85-6.48,19.81-5.83-4,7.25-7.74,13.89-11.45,20.53-4.31,7.7-8.45,15.5-13,23-2,3.28-1.48,5.39.74,8.3,13.14,17.21,26,34.66,39.11,51.87,2.31,3,2.32,5.13.28,8.3-9.53,14.85-18.7,29.94-28.23,44.8-2,3.13-2,5.29.27,8.28,15,19.76,29.8,39.7,44.81,59.46,2,2.62,2.27,4.69.84,7.64q-13.53,27.85-26.72,55.87c-1.37,2.9-3,3.72-6.1,3.57-27.44-1.29-50-12.93-68.61-32.57-23.21-24.48-37-54.34-47.64-85.8-12.18-36-19.34-73-23.35-110.71-.17-1.66-.23-3.33-.28-5A8.25,8.25,0,0,1,6.92,62.69Z"/><path class="cls-1" d="M308.61,64.36c-.32,3.34-.65,8.1-1.23,12.82-5.85,47.32-15.94,93.53-36.09,137.06C261,236.49,248.05,257,229.5,273.39,215.74,285.59,200,293.73,181.77,297c-1.93.35-3.9.46-6.8.79,1-2.26,1.57-3.86,2.3-5.4,8.57-18,17.09-36.12,25.83-54.08,1.51-3.11,1.39-5.22-.75-8-14.81-19.49-29.35-39.18-44.18-58.66-2.27-3-2.53-5.06-.48-8.26,9.61-15,18.86-30.23,28.47-45.24,1.93-3,1.89-5-.29-7.83-13.32-17.48-26.38-35.16-39.69-52.66-2.09-2.76-2.35-4.78-.55-7.88q11.43-19.64,22.26-39.62c1.66-3.06,3.88-4.39,6.78-3.26,5.82,2.26,12.33,4,17,7.84,17.24,14.29,36.81,24.56,56.8,34A206.54,206.54,0,0,0,282,61.4C290.28,63.68,299.25,63.42,308.61,64.36Z"/></g></g></svg>