<svg xmlns="http://www.w3.org/2000/svg" viewBox="0 0 264.1 297.64"><defs><style>.cls-1{fill:#f52f57;}</style></defs><g id="Calque_2" data-name="Calque 2"><g id="logo_sidaction" data-name="logo sidaction"><path class="cls-1" d="M140.93,22.66c2-1.52,4-2.49,5.3-4C159.4,3.75,175.8-.79,194.89,3.35c6.92,1.5,12.21,5.43,15.05,12,4.22,9.77,8.22,19.64,12.18,29.51,5.89,14.64,12.35,28.87,25.61,38.59,3.89,2.86,8,5.41,11.81,8.38,5.9,4.62,5.92,7.69.92,13.17-9.41,10.31-19,20.47-27.94,31.2-10.29,12.39-17.21,26.82-23.69,41.51-5.5,12.48-11.35,24.83-17.66,36.92-9.33,17.88-23.27,31-42,38.85-2.47,1-4.49,3.3-6.48,5.24-7.13,7-13.67,14.66-21.32,21-21.59,17.9-46.2,22.63-72.58,13.14-26-9.37-42.19-28.49-47.08-55.61-4.44-24.61.27-48.47,11.09-70.94,4-8.37,9.21-16.19,13.53-24.44a12.8,12.8,0,0,0,1.47-7.77c-2.27-11-6.74-20.9-15.77-28.18a19.61,19.61,0,0,1-1.75-1.78C3.4,97,3.9,93.53,12.79,89.33c19.1-9,31.56-24.54,41.79-42.3C63,32.34,72.69,18.7,87.21,9.18a56.4,56.4,0,0,1,24.62-9C122.7-1.13,133.61,5.36,138,15.51,138.91,17.62,139.74,19.76,140.93,22.66Zm36.88,72.12c4.42,5.71,9.95,8,16.8,5.81,2.53-.81,4.93-2,7.47-2.77,1.29-.39,3-.76,4.09-.2,7,3.67,13.76,7.6,20.66,11.47-.09.1-.72.83-1.42,1.51-16.15,15.78-31.26,32.49-41.72,52.65-9.11,17.56-16.89,35.82-25.69,53.56-13.7,27.59-30.42,52.83-56.79,70.24a15.18,15.18,0,0,0-2.39,2.63c1,.2,1.57.5,1.94.36,2-.79,4-1.61,6-2.56,11.38-5.56,19.29-15.1,27.86-24,5.51-5.69,11.11-11.64,17.71-15.83,4.62-2.93,8.12-5.77,10.17-10.82,5.82-14.35,11.92-28.58,17.86-42.88,12.13-29.2,27.63-56.16,51.54-77.55,3.26-2.92,6.11-6.3,9.46-9.79-3.23-1.17-6.18-2.22-9.12-3.31-7.33-2.72-14.77-5.2-21.92-8.34-2.49-1.09-4.62-3.58-6.28-5.88-4.26-5.93-7.69-12.52-12.34-18.11-9.17-11-20.86-15.7-35.18-11.47-5.59,1.65-11.24,3.18-16.63,5.35-7.8,3.13-15.27,2.64-22.74-.77-3-1.38-6.14-2.61-9.09-4.16-12.36-6.49-24.53-5.45-36.13,1.52-5.63,3.39-10.74,7.75-15.73,12.09-10.52,9.16-20.8,18.6-30.82,27.61,3.71,7.41,7.34,14.63,10.72,21.38L85.75,88.71c13.09,13.73,13.09,13.73,35.93,8.52-28.24,30-55,60.1-58.22,104.51,1.22-2.9,2.07-4.8,2.82-6.75,13.18-34.29,31.5-65,61.17-87.81,2.83-2.18,5.07-3.61,8.83-1.92,2.79,1.25,6.13,1.45,9.26,1.74C157.83,108.13,167.87,102.9,177.81,94.78ZM98.15,244.7c.27,5.15,2.66,9.14,6.72,10.21,3.35.88,8,0,11.07-1.83,6.44-3.76,9.69-10.46,12-17.32,6.85-20.69,13.19-41.55,20.2-62.18,4.47-13.15,10.78-25.44,20.49-35.67a127.24,127.24,0,0,0,9.06-10,6.86,6.86,0,0,0,.65-5.37c-.25-.86-2.64-1.47-4.08-1.52a11.36,11.36,0,0,0-4.74,1.09,40.77,40.77,0,0,0-18.62,16.15c-7.78,12.55-15.41,25.3-21.65,38.65-8.78,18.82-15.27,38.69-26.48,56.41C100.58,236.73,99.65,240.89,98.15,244.7ZM88.9,119.77l-1.05-2.15c-2.33.49-5,.41-6.95,1.57-25.29,15-41.73,37.24-52,64.38-3.91,10.35-6.6,21-5,32.24,1,6.56,5.06,10,10.62,9.14,4.64-.75,5.93-4.44,6.82-8.2,1.3-5.51,2-11.15,3.44-16.63,7.29-28.23,17.23-55.06,40.21-74.91C86.67,123.8,87.63,121.6,88.9,119.77Zm42.78-98.41c-2.41-3.61-3.72-6.81-6-8.83C116,4.19,97.88,8,92.27,19.56c-1.08,2.23-.39,5.31-.52,8,2.43.07,5.15.88,7.23.06,5.32-2.12,10.12-.94,14.34,1.91,3.75,2.54,7.56,3.63,11,1.06C127.22,28.4,129,24.78,131.68,21.36Zm69.44,1.89c-1.72-3.1-2.56-5.54-4.15-7.32-6.72-7.51-29-4.8-34.15,4-2.4,4.13-.81,7.71,3.85,8.32a13.55,13.55,0,0,0,5.39-.25c4.93-1.45,9.07-.14,13,2.87,3.14,2.41,6.9,3.42,10,.69C197.59,29.36,199.14,26.07,201.12,23.25Z"/><path class="cls-1" d="M203,94c-4.81-10-10.62-18.87-18.79-26-5.94-5.16-13-7.62-20.82-6.28-6.2,1.07-12.6,2.18-18.31,4.66-13.83,6-26.39,4.2-39-3.43-3.77-2.29-8.7-3.3-13.2-3.63-9.31-.68-17.61,2.73-25.13,8.14-3.81,2.73-4.15,4.83-1.13,8.47,3.92,4.71,10.51,5.95,16.87,3.15,1.6-.71,3.14-1.53,4.82-2.35C91,88,95.21,92,104.83,93.12A26.4,26.4,0,0,0,122,89.19c2.81-1.67,5.59-3.4,8.35-5.09,12.33,17.73,23.52,17.63,45.38,0C183.05,98.22,188.42,100.27,203,94Z"/></g></g></svg>