<svg xmlns="http://www.w3.org/2000/svg" viewBox="0 0 173.48 203.55"><defs><style>.cls-1{fill:#f52f57;}</style></defs><g id="Calque_2" data-name="Calque 2"><g id="logo_sidaction" data-name="logo sidaction"><path class="cls-1" d="M52.88,175.73c0-6.73.2-13.15-.07-19.54-.17-4.07,1.14-6,5.18-7.49,9.25-3.31,14.66-10.23,15.39-20.14.15-2-1.15-5.27-2.74-6.1C56.4,115,47.8,102.86,40.93,88.94A18.36,18.36,0,0,0,34.72,82C17.08,70.5,5.77,54.65.81,34.21c-3-12.3,2.35-19.26,15-19.38,4.12,0,8.24,0,12.79,0,.28-2,.57-3.46.69-5C29.83,2.75,32.47.08,39.82.06q46.7-.12,93.38,0c8.54,0,10.29,2.28,11.48,14.77,4.32,0,8.79,0,13.26,0,11.77.14,17.52,7.06,14.92,18.35-4.64,20.19-15.54,36.1-32.68,47.9a27.92,27.92,0,0,0-8.32,9.45c-7,12.74-15,24.25-28.14,31.48a8.1,8.1,0,0,0-3.35,6.39c.77,9.49,5.67,16.74,14.71,19.91,5,1.77,6.09,4.47,5.86,9.13-.31,5.94-.08,11.9-.08,18.79,3.8,0,7-.13,10.08,0,8.08.4,12.71,5,13.18,13.05.84,14.14.84,14.14-13.17,14.13-31.13,0-62.26-.13-93.38.12-6,0-8.07-1.7-8-7.83C29.72,179.44,31.56,177.55,52.88,175.73ZM87.15,6.35c-15.21,0-30.41.11-45.61-.06-4.33,0-6.44,1.23-6.17,5.86.83,14.7.5,29.53,2.48,44.06,2.73,20.17,10,38.86,25.2,53.28,14.26,13.5,33.35,14,46.92-.07a101.51,101.51,0,0,0,18.49-27.89C138.69,59.19,138.35,35,138,11c-.07-4.34-2.61-4.66-5.92-4.65C117.09,6.39,102.12,6.35,87.15,6.35ZM36.6,196.49H137.42c1.26-12.36-.14-13.93-11.87-13.93H48.09C36.43,182.56,35.19,184,36.6,196.49Zm77.8-40H59.67v19.13H114.4Zm-80.84-83C31.68,55.89,29.83,38.65,27.94,21c-4.61,0-9.44-.27-14.23.07-5.59.41-8.2,3.57-7.14,9.34C9.87,48.4,19.23,62.59,33.56,73.51Zm106.26,0c14.44-11,23.74-25.2,27-43.25,1-5.39-1.36-8.67-6.57-9.17S149.88,21,145.47,21C143.52,39.07,141.69,56.12,139.82,73.5Zm-38.14,75.69-9.51-23H81.77l-9.7,23Z"/></g></g></svg>