<svg xmlns="http://www.w3.org/2000/svg" viewBox="0 0 213 236"><defs><style>.cls-1{fill:#ecdf49;}</style></defs><g id="Calque_2" data-name="Calque 2"><g id="logo_sidaction" data-name="logo sidaction"><path class="cls-1" d="M213,36c-2.4,6.16-4.8,12.32-7.21,18.53-27.72-31.29-61.23-43.17-101.48-28.66-29,10.46-47.67,41.44-51.4,65.18H193c-2.22,5.82-4,11.17-6.4,16.21-.54,1.13-3.32,1.67-5.07,1.67q-62,.13-124,.07H49.28c0,6.13-.18,11.91.18,17.66.06,1,2.32,2.58,3.64,2.65,5.48.32,11,.18,16.49.19l103,.17h6c-2.12,6-3.8,11.49-6.07,16.69-.43,1-3.18,1.34-4.86,1.36q-27.75.19-55.5.18c-19.49,0-39,0-59.32,0C62,178.19,78.91,201.53,109,211.75c38.14,12.93,70.55,2.45,97.63-29.7,0,9.32.16,17.34-.16,25.34,0,1.35-2,2.88-3.38,3.9-17.59,12.89-36.7,22.1-58.81,24A10.16,10.16,0,0,0,142,236H131c-2.92-.47-5.85-.89-8.77-1.4-33.59-5.94-58-24.8-74.44-54.08-5.64-10.06-9.35-21.2-14.32-32.72H.84c1.76-4.65,3.71-8.56,4.67-12.69,1.12-4.8,3.86-5.79,8.26-5.56,5.94.31,11.9.08,17.86.08V109H0v-1c2.16-4.64,4.13-9.38,6.58-13.86a6.22,6.22,0,0,1,4.3-2.87c6.64-.35,13.32-.32,20-.22,2.62,0,3.55-.81,4.31-3.46,2.23-7.8,4.43-15.7,7.7-23.1C55.88,35,76.29,13.08,108,3.57c5.83-1.74,12-2.41,18-3.57h11a6.4,6.4,0,0,0,1.78.72c18.31,1.35,34.8,8.06,50.2,17.53,8.3,5.11,16,11.14,24,16.75Z"/></g></g></svg>