<svg xmlns="http://www.w3.org/2000/svg" viewBox="0 0 198.47 225"><defs><style>.cls-1{fill:#ecdf49;}</style></defs><g id="Calque_2" data-name="Calque 2"><g id="logo_sidaction" data-name="logo sidaction"><path class="cls-1" d="M37.67,225c-8.11-6.35-8.19-13.63.4-19.75,3.1-2.21,7.25-3,11-4.19,1.36-.43,3-.1,4.48-.1,19.24,0,19.24,0,30.41-14.57-3.76-5.06-7.22-9.93-11-14.57a8.13,8.13,0,0,0-4.36-2.6c-9.85-2.15-17.25-7.66-20.72-17C37,122.94,26.52,93.5,16.08,64c-.51-1.44,1-3.59,1.58-5.4,1.57,1.32,4,2.35,4.58,4,9.3,25.28,18.37,50.64,27.49,76,1.3,3.6,2.48,7.25,4,10.75C57.42,158,63.87,163,73.37,163.07c17.17.18,34.34.1,51.5.13,1.34,0,2.86-.41,4,.1a33.2,33.2,0,0,1,5,3.44c-1.62,1-3.19,2.9-4.87,3-6.31.35-12.66.14-19,.14H79.69c2.36,6.4,6.37,9.71,12.49,9.75q26.75.19,53.51,0c6.34,0,9.88-3,12.15-9.75-4.1,0-8.07.31-12-.14-1.75-.21-3.32-1.94-5-3,1.67-1.19,3.27-3.27,5-3.41,5.64-.44,11.33-.08,17-.2,5.83-.13,8.49-2.82,8.59-8.65.1-6.17.08-12.33,0-18.5-.08-6.38-2.77-9-9.22-9-27.18,0-54.35-.1-81.51.08-4.56,0-6.77-1.41-8.33-5.81C59.65,85.08,46.57,49,33.56,12.85,31.23,6.38,29.76,5.69,23.13,8c-3.61,1.25-7.21,2.55-10.8,3.85-6,2.18-6.79,3.74-4.71,9.66Q11.74,33.25,16,45c.87,2.39,1.49,5-1.59,5.63-1.23.24-3.74-1.85-4.35-3.39C6.75,38.88,3.72,30.42.84,21.92-1.57,14.78,1.27,9.11,8.4,6.37,14.12,4.16,19.91,2.12,25.67,0h5c3.73,2.69,7.45,4.35,12.5,4.25,6.45-.13,11.15,3.95,13.5,10.13,2.19,5.74,4.21,11.55,6.26,17.35,3.92,11,2.34,16.32-7.15,23.54l1.41,4a6.61,6.61,0,0,0,1.57.28c9.23-.88,15,2.61,18.21,11.23,2.32,6.23,4.5,12.51,6.77,18.76,4,10.93,2.38,16.51-6.77,23.3,1.35,7.54,1.35,7.54,8.57,7.54,11,0,22-.2,33,.1,4.21.11,7.12-.71,8.24-5.06a8.21,8.21,0,0,1,.46-.88c4.31-9.62,8.89-19,19.76-24.55-3-1.76-5-2.83-6.87-4.06q-7.76-5-4.61-13.8c.91-2.5,1.85-5,3-7.39,2.84-5.93,8.76-8.39,14.54-5.45,17.5,8.92,32.44,20.93,43.2,37.6,4.23,6.56,2.26,13.11-4.71,16.68-2.07,1.07-4.17,2.08-6.32,3-5.65,2.34-10.37,1-14.12-3.86-2.4-3.13-4.85-6.23-7.49-9.62-5.68,5.48-13.12,8.52-14.83,17.33,4.74,0,9.21-.12,13.68,0q15.25.48,15.37,15.61c.06,6.5,0,13,0,19.49s-3.3,10.84-9.21,13.54a9.43,9.43,0,0,0-4.36,4.17c-4.31,9.24-11.3,13.59-21.51,12.93-3.65-.24-7.41.43-11-.13-9.59-1.51-16.69,1.78-21.74,10a44.38,44.38,0,0,1-4,4.69c2,.13,3.4.3,4.79.3q22,0,44,0A20.51,20.51,0,0,1,169.08,206c7.57,6.68,7,13.74-1.38,19Zm65.26-6.39h41.45c6.16,0,12.33.12,18.48-.09,1.6-.06,4.15-.88,4.49-1.92.41-1.29-.56-4-1.74-4.65-3.5-1.92-7.39-4.39-11.15-4.42-34.29-.34-68.59-.28-102.88-.07a20.19,20.19,0,0,0-9.69,3.13c-1.77,1.06-2.45,3.94-3.61,6,2.07.67,4.14,1.9,6.21,1.92C64,218.67,83.45,218.61,102.93,218.61Zm45.77-154c-5.41.73-5.22,5.78-7,9.23s0,5.65,3,7.28c11.38,6.17,21.37,14,29.24,24.41,5.19,6.84,5.17,6.86,13,3.07,5.7-2.77,6.31-4.76,2.74-10-9.83-14.29-23-24.79-38.11-32.92A25.11,25.11,0,0,0,148.7,64.61Zm-89.09,1.6c5,13.68,9.7,26.81,14.49,40.07,4.88-3.21,6.36-6.21,4.88-10.62-2.67-8-5.47-16-8.54-23.84C68.68,67.35,65.16,65.22,59.61,66.21ZM53.36,48.68c4.57-2.85,6.18-6.45,4.89-10.6-2.31-7.42-5-14.74-7.88-21.95-1.81-4.5-5.91-6.16-10.47-4.76C44.32,23.62,48.73,35.86,53.36,48.68ZM152.6,93.77c-11,5.79-16.57,15.2-20.28,26.07,5.87,1.65,9.48.23,11.84-5.64,1.46-3.62,4.76-6.58,7.54-9.56a78.13,78.13,0,0,1,7.05-6ZM110,186.08c-5.56,0-10-.08-14.36,0a5.54,5.54,0,0,0-3.55,1.15c-3.92,4.15-7.63,8.5-12.22,13.68,5.63,0,10,.08,14.43-.05a5.51,5.51,0,0,0,3.56-1.12C101.81,195.62,105.5,191.25,110,186.08Z"/><path class="cls-1" d="M148.7,64.61a25.11,25.11,0,0,1,2.88,1.11c15.15,8.13,28.28,18.63,38.11,32.92,3.57,5.2,3,7.19-2.74,10-7.79,3.79-7.77,3.77-13-3.07-7.87-10.38-17.86-18.24-29.24-24.41-3-1.63-4.73-3.88-3-7.28S143.29,65.34,148.7,64.61Z"/><path class="cls-1" d="M59.61,66.21c5.55-1,9.07,1.14,10.83,5.61,3.07,7.86,5.87,15.83,8.54,23.84,1.48,4.41,0,7.41-4.88,10.62C69.31,93,64.56,79.89,59.61,66.21Z"/><path class="cls-1" d="M53.36,48.68c-4.63-12.82-9-25.06-13.46-37.31,4.56-1.4,8.66.26,10.47,4.76,2.89,7.21,5.57,14.53,7.88,22C59.54,42.23,57.93,45.83,53.36,48.68Z"/><path class="cls-1" d="M152.6,93.77l6.15,4.89a78.13,78.13,0,0,0-7.05,6c-2.78,3-6.08,5.94-7.54,9.56-2.36,5.87-6,7.29-11.84,5.64C136,109,141.58,99.56,152.6,93.77Z"/></g></g></svg>