<svg xmlns="http://www.w3.org/2000/svg" viewBox="0 0 226.47 115.85"><defs><style>.cls-1{fill:#e2001a;}</style></defs><g id="Calque_2" data-name="Calque 2"><g id="logo_sidaction" data-name="logo sidaction"><path class="cls-1" d="M113.83,115.85c-35.58-.32-66.54-12-94.83-31.62C13.81,80.64,8.84,76.7,4,72.7c-5.42-4.44-5.24-6.28.42-10.11,8.41-5.68,16.78-11.44,25.23-17.08,2.14-1.44,3.17-2.69,2.27-5.66C27,23.78,32.87,9.65,47,2.86,60.21-3.52,75.17,1,84.5,14.16a8.67,8.67,0,0,0,2.41,2.38c7.32,4.55,14.8,8.84,22,13.59,3.3,2.18,5.81,2.31,8.94-.18,3.76-3,7.87-5.59,11.84-8.33,10.83-7.51,21.53-7.46,32.46,0q30.09,20.6,60.2,41.14c5.32,3.63,5.49,5.33.67,9.44-27.11,23.12-57.93,38.18-93.49,42.8C124.08,115.73,118.54,115.62,113.83,115.85ZM13,70.26c18.06,17.63,62.78,40.29,103.27,38.63,36.6-1.51,68.19-15.23,97-37.43-.92-.75-1.15-1.09-1.4-1.12a296.89,296.89,0,0,0-60.35.44c-14.36,1.61-28.76,3.89-43.16,4-12.38,0-24.77-2.65-37.16-4.07C52.15,68.46,33,68.72,13,70.26Zm196.61-7.84c-18.58-12.67-36-24.68-53.53-36.42-6.91-4.62-14.19-4.12-21.12.32-4.06,2.61-8,5.43-11.92,8.22-8.55,6.07-11.42,6-20-.17-4.39-3.16-8.89-6.17-13.61-9.44a11.68,11.68,0,0,0-.51,2.13c.22,13-4.78,23.13-16.7,28.87S49,59.61,38.94,50.81c-.82-.72-2.69-1.39-3.35-1-5.91,3.79-11.65,7.84-17.44,11.81,6.52.83,12.6.5,18.69.21A294.83,294.83,0,0,1,87.13,64c13.77,1.7,28,2.57,41.74,1,22.74-2.67,45.35-4.48,68.2-2.55C200.79,62.69,204.56,62.42,209.63,62.42ZM85.54,29.57C85.35,14.5,73.78,3.08,58.8,3.2,44.78,3.31,33,15.48,33.14,29.75a26.2,26.2,0,0,0,52.4-.18Z"/><path class="cls-1" d="M59.44,53.32A23.83,23.83,0,0,1,35.51,30.15,24.11,24.11,0,0,1,59.29,5.68C72,5.58,82.85,16,83.08,28.48,83.34,42.54,73.32,53.08,59.44,53.32ZM38.9,29.41A20.64,20.64,0,0,0,59.24,50.29c11,.14,20.63-9.3,20.94-20.57C80.48,18.7,71,9.18,59.57,9A20.3,20.3,0,0,0,38.9,29.41Z"/><path class="cls-1" d="M41.39,29.16a18,18,0,1,1,36,.55C77.28,40,68.86,48.19,58.86,47.79A18,18,0,0,1,41.39,29.16Zm17.8,15.37A15,15,0,0,0,74.36,29.9a15.23,15.23,0,0,0-15-15.43c-7.86-.05-15,7.06-15,15A15.3,15.3,0,0,0,59.19,44.53Z"/><path class="cls-1" d="M59.45,18.4A11.21,11.21,0,0,1,70.76,29.8,11.53,11.53,0,0,1,59.1,41,11.3,11.3,0,0,1,48.19,29.63C48.17,22.92,52.78,18.33,59.45,18.4Z"/></g></g></svg>