<svg xmlns="http://www.w3.org/2000/svg" viewBox="0 0 182.48 227.25"><defs><style>.cls-1{fill:#ecdf49;}</style></defs><g id="Calque_2" data-name="Calque 2"><g id="logo_sidaction" data-name="logo sidaction"><path class="cls-1" d="M99.62,25c24.59,5.2,48.41,12.16,67.24,29.93,17.59,16.59,20.53,39.8,7.77,58.24-8.91,12.87-23.39,18.7-38.31,15.41-12.1-2.66-20.38-12.6-21.19-25.13-.64-9.72.91-19.11,5.62-27.51,11.66-20.78,1.72-38.1-16-48.12C103.08,26.83,101.34,25.92,99.62,25Z"/><path class="cls-1" d="M23.19,123.11c24.35,4.9,48,12,66.59,29.83,20.6,19.75,19.92,50.3-1.49,66.9-10.87,8.44-23.37,9.42-35.9,4.19C42,219.69,35.5,206.44,37.55,193.82c1.19-7.29,2.81-14.94,6.23-21.37,9.43-17.74,3.07-34.13-12.91-44.8C28.4,126,25.75,124.62,23.19,123.11Z"/><path class="cls-1" d="M81.41,0c-5.74,4.49-11.25,8-15.8,12.52-10,9.84-11.71,22.71-5.47,35.33C64.3,56.27,67.36,65,67.35,74.54c0,21.2-15.17,33.12-36,29.63C5.08,99.79-10.07,63.92,7.68,39.45a73.26,73.26,0,0,1,15-15.18C40,11.21,60.17,4.74,81.41,0Z"/></g></g></svg>