<svg xmlns="http://www.w3.org/2000/svg" viewBox="0 0 108.74 147.03"><defs><style>.cls-1{fill:#00c421;}</style></defs><g id="Calque_2" data-name="Calque 2"><g id="logo_sidaction" data-name="logo sidaction"><path class="cls-1" d="M45,91.67,44.13,80h-2.5c-.14,2.56-.38,5.12-.4,7.68,0,4.48-1.31,5.3-5.41,3.38-6-2.82-6.34-8.11-5.68-13.59.3-2.55-.32-3.79-2.61-5C11.44,63.69,8.27,57.07,11.06,38.81,14.26,17.86,29,3.27,49.9.28,64.74-1.84,82.33,8.34,90.11,23.76c4.93,9.78,6.93,20.1,4.39,31-2,8.62-7.17,14.59-15.78,17-2.65.75-3.52,1.94-3.43,4.46.08,2.16-.05,4.33-.13,6.49-.27,7.28-2.88,9.54-10.82,9C64.16,87.89,64,84,63.8,80.08L61.32,80c-.21,3.8-.42,7.61-.65,11.82H54.25c-.25-4-.48-7.88-.78-12.93-4.8,4.21-2.45,8.55-3,12.77ZM85.67,51.4c-1-9.09-4.63-16.89-12.17-22.52-3.48-2.6-7.78-3.62-11.16-1-2.56,2-5,5.67-5.25,8.78-.81,9.69,3,17.9,10.7,24,3.69,3,8,3.15,12.25,1.18S85.38,55.8,85.67,51.4ZM47.92,38.47c-.45-4.76-.47-10.11-6-12-5.25-1.76-9.87,1-12.37,5.29a81.13,81.13,0,0,0-8.06,18.36,10.27,10.27,0,0,0,5.78,12C32.14,64.34,37.19,63,41,58.4,45.78,52.66,47.44,45.82,47.92,38.47Zm11.94,28c.48-3.93.56-8.22-3.56-10.22-2-1-5.68-.42-7.65.88a6.64,6.64,0,0,0-2.35,8.64Z"/><path class="cls-1" d="M66.94,110.25c5.93,4,11.77,8,17.82,11.79a16.6,16.6,0,0,0,12.89,2.32c2.1-.47,6.22.75,6.7,2.15.73,2.08-.52,5.23-1.71,7.51-1.94,3.72-4.68,7-6.78,10.64-1.84,3.17-8.38,3.24-10.72-.26-1-1.47-2-3.41-1.86-5.05.39-4.7-2.32-6.59-5.93-8.49-7.07-3.7-14-7.71-20.83-11.82a6.41,6.41,0,0,0-7.31,0c-8.1,4.58-16.37,8.86-24.47,13.45-1.2.68-2,2.33-2.67,3.67-1.29,2.49-1.78,5.75-3.7,7.44a10.2,10.2,0,0,1-7.54,1.9c-1.47-.24-3.39-3.24-3.5-5.09-.21-3.87-2.4-5.8-4.92-8.14C1,130.93-.13,127.87.47,126.3s3.77-3.08,5.46-2.76c7.91,1.5,14.34-1.47,20.59-5.62,3.73-2.49,7.53-4.86,12.21-7.88-5.36-3.18-10.28-6-15.11-9C18.48,97.9,13.51,94.83,6.93,97c-2.65.87-6.38.53-6.86-3A11.05,11.05,0,0,1,2.3,86.14C4.43,83.65,6.78,82,6.82,78.08s3.62-4.14,6.75-4.07,6.16.92,5.75,4.6c-.53,4.82,2.15,6.67,5.7,8.64,8.15,4.53,16,9.5,24.23,13.93a7.81,7.81,0,0,0,6.23.14c9.1-4.49,18-9.45,27-14.1,2.81-1.45,4.31-3.24,4-6.61-.32-3.74.87-6.71,5.42-6.57,4,.12,7.42.32,7.72,6,.13,2.55,3.29,4.92,5,7.44,1.45,2.15,2.76,4.4,4.14,6.61-2.66,1.29-5.87,4.26-7.89,3.6-14.28-4.66-22.1,8.45-33.74,10.64Z"/></g></g></svg>