<svg xmlns="http://www.w3.org/2000/svg" viewBox="0 0 311.52 131.59"><defs><style>.cls-1{fill:#00c421;}</style></defs><g id="Calque_2" data-name="Calque 2"><g id="logo_sidaction" data-name="logo sidaction"><path class="cls-1" d="M41.26,105.21c9.55-13.41,15.43-28.54,20.57-44,.62-1.86,1.19-3.74,1.78-5.61l-1.16-1.4c-2.07,1.34-4.62,2.27-6.13,4.07C44.08,72.77,32,87.45,20,102.08c-.62.74-1.15,1.56-1.72,2.34l-1.56-1.32,34-42.24-.53-.6c-3.06,2.49-6.48,4.66-9.1,7.55-8.13,9-17,17-27.95,22.29C9.18,92,4.51,92.48,0,92.89c21.36-3.58,33.43-20.11,47.2-33.95,2.36-2.38,2.2-7.27,3.3-11.37H37.36l-.25-1,3-1-2.27-3.78c4.63-5,9.09-2.64,13.84,1.76,3.11-15,2-29.34,5-43L59,0,70.58,16.79C88.47,4.22,89.64,4.16,105.94,15.51c1.28-2.88,2.33-5.78,3.82-8.43a69.11,69.11,0,0,1,4.7-6.57l1.58.86c0,3.57.16,7.14-.05,10.7-.16,2.85-.13,6,3.05,6.44,2.76.38,6.34-.15,8.52-1.72,3.73-2.69,6.62-6.53,9.91-9.84,4.88-4.9,5.55-4.87,11.09-.39,9.7,7.86,19.38,15.75,29.18,23.49,4.44,3.5,9.11,6.71,13.76,9.93a7,7,0,0,0,3.64,1.19c21.92.51,43.65-.61,64.16-9.42C264.76,29.4,269.77,26,275,23c2.23-1.26,4.43-2.59,6.65-3.9l.9,1.66c-8.52,4.51-17,9.15-25.6,13.45-3.39,1.69-7.2,2.5-10.77,3.86a71.86,71.86,0,0,1-25.37,4.38c-10.2.1-20.39,1.41-30.59,2-1.06.06-2.34-1-3.27-1.81-12.83-11.13-25.68-22.22-38.36-33.51-3.46-3.08-6.41-2.42-9.08.44-3.61,3.87-6.83,8.08-10.24,12.16,7.21,5.17,8.9,5.31,15.57,1.16,3.77-2.35,7.25-2.24,9.18,2,4.4,9.68,12.4,14.57,21.91,18a95.65,95.65,0,0,1,13,6.23c1.3.71,2.07,2.39,3.08,3.63L190.85,54l-22.77-7.92-.68,1.35c7.25,4.79,13.09,12.13,22.5,13,4.2.39,6.06,2.36,7.15,5.66.54,1.64-5.42,7-7.65,7.22-1.29.13-2.58.19-5.58.4,3.71,4.06,6.13,7.93,9.58,10.27,11,7.44,22,15.11,33.77,21.24C249.74,117,273.41,124,299.11,116.1c4.19-1.29,8.2-3.16,12.41-4.38-11.21,5.91-22.71,9.71-35.87,9.5-17.75-.3-33.38-7.22-49.06-13.74-8.94-3.71-16.67-10.26-25.1-15.28-4.83-2.88-10.09-5.06-14.89-8-1.58-1-2.66-3.14-3.39-5-1.65-4.18-4.15-5.87-9-6.07-17.93-.74-33.89-7.35-48.4-17.71a13.72,13.72,0,0,0-1.64-1.09c-.25-.13-.63,0-2.38.11-.48,11.56-1,23.25-1.39,35a5,5,0,0,0,1.12,2.71c8.25,11.66,16.55,23.3,24.55,35.43-4-4.2-8.33-8.09-11.77-12.67-5.69-7.57-10.85-15.54-16-23.47a8.84,8.84,0,0,1-1.39-5.36c1.12-10.25,2.61-20.45,3.78-30.7.2-1.68-.52-3.48-.92-5.87-5.42,3.41-8.33,6.62-7,12.44a35.29,35.29,0,0,1,.27,10.24c-1.56-6.94,0-15.89-11.57-15.43-3.55,3.81-3.55,3.81-9.74-6.17l-.49,9.79a55.66,55.66,0,0,1-4.89-4.48c-2.26-2.66-4.18-5.62-6.5-8.21a63,63,0,0,0-5.8-5.11c-1.26,2.1-2.38,4.3-3.81,6.28-8.39,11.65-11,25.74-15.93,38.79C51.52,95,47,100.4,41.46,105.39Zm13.43-67.9L65,35.05l-1.41-.77c.52-3.14.63-6.43,1.67-9.39,1.26-3.52,2.54-6.5-.54-9.9-2.39-2.65-4-6-6-9l-1.15.62C56.63,16.59,55.69,26.59,54.69,37.31Zm88.14-8.71L156,34.09,157,32.91c-2-2.86-3.49-6.27-6.1-8.29C150,23.93,146.44,26.75,142.83,28.6ZM115.77,46.73,111.07,43c-5.26,5.43-5.45,6.58-1.66,10.45Z"/><path class="cls-1" d="M41.46,105.39c-3.92,6.24-20.87,22.8-28.15,26.2l27.95-26.38Z"/><path class="cls-1" d="M54.69,37.31c1-10.72,1.94-20.72,2.88-30.72L58.72,6c2,3,3.6,6.37,6,9,3.08,3.4,1.8,6.38.54,9.9-1,3-1.15,6.25-1.67,9.39l1.41.77Z"/><path class="cls-1" d="M142.83,28.6c3.61-1.85,7.2-4.67,8.09-4,2.61,2,4.15,5.43,6.1,8.29L156,34.09Z"/><path class="cls-1" d="M115.77,46.73l-6.36,6.73c-3.79-3.87-3.6-5,1.66-10.45Z"/></g></g></svg>