<svg xmlns="http://www.w3.org/2000/svg" viewBox="0 0 403.6 414.7"><defs><style>.cls-1{fill:#e2001a;}</style></defs><g id="Calque_2" data-name="Calque 2"><g id="logo_sidaction" data-name="logo sidaction"><path class="cls-1" d="M287,30.33C363.73,65.82,411.73,147.64,402.46,234.2c-10.42,97.27-87.58,168.31-175.59,179A201.71,201.71,0,0,1,11,278.29c-28.69-83.93,2.32-167.2,53.9-212.69C65,73.69,66.3,81.35,70,88.31c2.74,5.12,5.93,10,9.1,14.92,1.21,1.87,1.16,3.1-.33,4.85C58.58,131.73,46,159,41.64,189.78c-5.76,40.84,2.81,78.71,25.71,113,20.3,30.43,47.87,52,82.61,63.37,50.12,16.44,97.88,10.33,141.83-18.92,38.32-25.5,61.64-61.65,69.5-107,7.48-43.23-1.78-83.22-26.55-119.5a155.59,155.59,0,0,0-34.13-35.86,5.9,5.9,0,0,1-2.68-5.56c.19-3.5-.1-7,.08-10.51C298.7,55,296.46,41.91,287,30.33Zm-80.84,371c-.21-4.59-.21-9.1-.69-13.57-.3-2.72-2.67-3.3-5.06-3.19s-4.4,1.14-4.36,3.59c0,1.21,1.75,2.39,2.53,3.36-.85,1.69-2.28,3.6-2.74,5.72s.37,4.33,3.17,4.44C201.12,401.71,203.3,401.43,206.11,401.28Z"/><path class="cls-1" d="M132,49.83c-2.19-6.58-4.05-12-5.81-17.53-2-6.17-2.52-12.43.32-18.45C130.75,4.89,138,.27,147.88,0c9.57-.25,16.35,4.45,20.2,12.93,2.94,6.45,5.1,13.26,7.6,19.92l1.5,3.92c.73-1.56,1.21-2.4,1.53-3.31,1-3,1.9-6,3-8.95,3.55-9.5,12.13-15.44,21.76-15.18S222,15.78,224.69,25.28c1.84,6.58,2.4,13.52,3.53,20.3.17,1,.31,2,.61,4.09,2.57-2.27,4.56-4.07,6.59-5.83,8.24-7.11,19.23-7.72,28.12-1.43A21.6,21.6,0,0,1,273.06,61q-.1,66.89-.34,133.79c0,15.07-.57,30.09-2.94,45-1.3,8.18.34,16,3.07,23.7,3.4,9.56,6.83,19.1,10.19,28.67a21.33,21.33,0,0,1,1.29,5.41c.36,4.86-3,8.94-7.73,8.16-7.42-1.22-14.42.48-21.44,1.87-15.25,3-29.57,8.51-42.29,17.66a11,11,0,0,0-3.06,3.6c-1.68,3-4.16,4.88-7.52,5s-5.61-2.32-6.69-5.3c-3.56-9.86-6.94-19.8-10.36-29.71-5-14.47-11.14-28.27-23-38.67a114.89,114.89,0,0,0-35.48-21.42c-12.42-4.68-25.2-8.38-37.76-12.68a65.13,65.13,0,0,1-11.19-4.88c-8-4.61-9.87-13.32-4.51-21,5.5-7.86,13.45-12.11,22.54-14.31,11.66-2.82,23.43-1.84,35.17-.46,9,1.06,9.68.28,9.37-8.53-.4-11.63-4.19-22.11-9.86-32.08-12.22-21.48-24.37-43-36.68-64.44-7.26-12.64-4.12-27,7.77-34.22,7.65-4.61,15.33-3.9,23,.07C126.75,47.3,128.9,48.3,132,49.83Zm65.89-23c-2.77,3.36-2.74,7.3-2.18,11.29Q201,75.54,206.37,113c.61,4.26,1.36,8.53,1.63,12.82.28,4.51-1.91,7.1-6.11,8.08-3.69.87-6.49-.63-8.39-4.53a32.25,32.25,0,0,1-1.33-3.23Q176,80.23,159.87,34.38a136.55,136.55,0,0,0-6.44-15.11c-2-4-4.68-4.67-8.75-2.93-3.29,1.4-4.82,3.91-4.3,7.54a34.11,34.11,0,0,0,1.53,6.46Q153.9,64.68,166,99c3.55,10.11,7.24,20.19,10.59,30.37,2,6-.23,9.8-5.64,11-3.29.72-6.29-.94-8.7-5.06-7.3-12.49-14.44-25.07-21.81-37.51q-10.62-17.89-21.65-35.55c-2.41-3.84-5.43-4.48-8.66-2.83-3.94,2-5.66,5.49-4.29,9.58a34.1,34.1,0,0,0,3.43,6.86c8.83,14.28,17.93,28.41,26.56,42.82s16.1,29.5,19.25,46.27c1.68,9,1.72,17.88-1.81,26.51-4,9.89-8.32,11.83-18.78,10.19a164.61,164.61,0,0,0-24.68-2c-8.9,0-16.78,3.86-24.56,8.29.53.45.75.76,1,.86,4,1.25,8,2.57,12,3.68,19.86,5.45,39.27,12,56.85,23.07,16.29,10.27,30.23,22.82,37.84,41,3.77,9,6.74,18.37,10.08,27.58,1.21,3.34,2.44,6.68,3.84,10.49,17.86-14.1,38.23-19.38,60.16-20.75-.5-1.63-.77-2.62-1.11-3.6-2.51-7.15-5-14.31-7.57-21.44a66.53,66.53,0,0,1-4.09-26.75c1.29-23.19,2.63-46.39,3-69.6.55-35.36.32-70.75.32-106.12a28.51,28.51,0,0,0-1.35-8.55c-1-3-3.62-4.11-6.7-4a5.93,5.93,0,0,0-5.88,4.14A22.84,22.84,0,0,0,242.3,64c-.79,14.68-1.43,29.37-2.15,44.06-.34,6.87-.44,13.77-1.23,20.59-.57,4.89-4.06,6.81-8.93,5.85-3.69-.73-5.43-3.55-6.25-9.43q-6-43.67-12.21-87.32c-.63-4.45-.78-9.17-5.22-12.06-.46-.3-.53-1.25-.74-1.91a5.2,5.2,0,0,0-8.09-2.67C195.26,22.78,195.4,25.28,197.91,26.86Z"/><path class="cls-1" d="M235.28,159.71a11.12,11.12,0,0,1-11.42,11.13c-6.39-.12-11-5-10.89-11.59.11-6.21,4.95-10.78,11.36-10.73A11,11,0,0,1,235.28,159.71Z"/><path class="cls-1" d="M231.94,207.1a38.38,38.38,0,0,1-.47-4.13c-.1-5.23-.06-5.23-5.78-4.61-.13,2.38-.26,4.84-.39,7.3l-.6.06c-.11-1.07-.26-2.13-.33-3.2-.16-2.61-1.13-4.54-4-4.85-2.11-.22-2.3-1.41-1.94-3.2a11.49,11.49,0,0,1,14.13-9.16,10.67,10.67,0,0,1,8.07,13.83c-1.9-.32-3.7-.93-5.43-.75-.54.06-1,2.18-1.26,3.42-.32,1.75-.37,3.56-.53,5.34Z"/><path class="cls-1" d="M204.32,176.64a7.93,7.93,0,0,1,7.54,8.08c-.22,4.28-4.28,8-8.43,7.68s-7.78-4.37-7.56-8.23A8,8,0,0,1,204.32,176.64Z"/><path class="cls-1" d="M168.56,207.66c-3.31,3.05-5.23,6.28-4.72,10.7.47,4,3,5.62,6.84,4.49a12.74,12.74,0,0,1,3.59,0c1.15,0,2.31,0,3.79,0V210.58l1-.25c.28,1.15.65,2.29.83,3.45.5,3.2,1,6.4,1.33,9.62a3.68,3.68,0,0,1-.78,2.17,11.28,11.28,0,0,1-11.41,4.32c-5.41-1.51-8.63-5.14-9.09-10.28a11.34,11.34,0,0,1,6.08-11C166.85,208.26,167.72,208,168.56,207.66Z"/><path class="cls-1" d="M211.37,250.84a7.47,7.47,0,1,1-7.37-7.48C207.72,243.32,211.39,247.05,211.37,250.84Z"/><path class="cls-1" d="M177.3,182.07a7.32,7.32,0,1,1,7.54-7.43A7.27,7.27,0,0,1,177.3,182.07Z"/><path class="cls-1" d="M225.22,222.73h8.36l.43.57c-1.33.52-2.63,1.41-4,1.48-2.34.13-3.78.64-3.67,3.39s1.86,2.51,3.65,2.49h2.79c5.21-.07,6.17-.85,7.29-5.94a8.25,8.25,0,0,1-2.43,10.94,9.28,9.28,0,0,1-12.35-1.24A8.55,8.55,0,0,1,225.22,222.73Z"/><path class="cls-1" d="M208.29,212c3,4.42,2.11,13-.92,15.11a9.91,9.91,0,0,1-13.23-1.9,6.57,6.57,0,0,1-.6-2.39c.78-.06,1.56-.18,2.33-.17,1.47,0,2.94.13,5,.22V209.29l1.51,0c0,3.49.13,7-.05,10.46-.14,2.75,1.17,3.75,3.54,3.11a3.75,3.75,0,0,0,2.32-2.5A71.55,71.55,0,0,0,208.29,212Z"/></g></g></svg>