<svg xmlns="http://www.w3.org/2000/svg" viewBox="0 0 225 200.18"><defs><style>.cls-1{fill:#00c421;}</style></defs><g id="Calque_2" data-name="Calque 2"><g id="logo_sidaction" data-name="logo sidaction"><path class="cls-1" d="M0,177.69v-117a11.61,11.61,0,0,0,.82-1.8C4.26,46.11,13.13,39,26.34,38.41c1.44-.06,2.87-.25,4.57-.4,0-5.91,0-11.39,0-16.88C31,7.68,38.43.23,52,.19,64.5.15,77,.7,89.47,0c14.22-.75,24,8.36,22.87,22.89-.4,5-.06,10.14-.06,15.46h6.42c25.81,0,51.63,0,77.44,0a38.12,38.12,0,0,1,9.38.94c11,2.88,16.58,10.89,19.48,21.28v117a12.62,12.62,0,0,0-.8,1.81c-3.66,13.29-12.81,20.6-26.35,20.62q-85.11.09-170.22.06c-6.75,0-12.75-1.76-18-6S1.76,184,0,177.69Zm112.53,5.94q42,0,84,0c8.07,0,11.62-3.51,11.62-11.53q0-52.76,0-105.52c0-8.28-3.52-11.72-11.95-11.72q-83.74,0-167.47,0c-8.36,0-11.86,3.5-11.87,11.81q0,52.5,0,105c0,8.66,3.38,12,12.2,12Q70.8,183.65,112.53,183.63ZM95.84,38.2c0-6.32.22-12.13-.17-17.9-.08-1.27-2.32-3.41-3.59-3.43-13.64-.25-27.29-.23-40.92,0-1.21,0-3.39,1.6-3.44,2.54-.31,6.24-.16,12.49-.16,18.83Z"/><path class="cls-1" d="M164.51,118.12c.68,28.17-22.7,51.95-51.64,52.54-28.19.56-51.54-22.5-52.41-51.78-.81-27.06,22.35-51.71,49.15-52.32C140.45,65.86,163.79,87.78,164.51,118.12ZM112.62,153.8a35.39,35.39,0,0,0,35.31-35.21c0-19.54-16.33-35.84-35.6-35.58C92.85,83.28,77,99.19,77.06,118.38A35.31,35.31,0,0,0,112.62,153.8Z"/></g></g></svg>