<svg xmlns="http://www.w3.org/2000/svg" viewBox="0 0 332.93 332.94"><defs><style>.cls-1{fill:#e2001a;}</style></defs><g id="Calque_2" data-name="Calque 2"><g id="logo_sidaction" data-name="logo sidaction"><path class="cls-1" d="M302.8,252.5a20,20,0,0,0-4.08,2.22q-18,16-35.76,32.19a6.49,6.49,0,0,0-1.69,4.19c-.14,3.3-2.18,5.13-5.61,5a7,7,0,0,0-4.42,1.32c-4.83,4.05-9.47,8.34-14.16,12.57-2.17,2-4.42,3.52-4.06,7.33.32,3.43-3.94,4.74-7.1,2.82a8.34,8.34,0,0,0-5.12-1.43q-24.84,4.32-49.58,9.13c-1.47.28-2.65,1.93-4,2.84s-2.82,2.28-4.19,2.23-2.68-1.6-3.92-2.61c-1.4-1.14-2.5-3.06-4.06-3.52-8.4-2.47-17-4.31-25.34-6.91-13.87-4.33-27.59-9.11-41.41-13.62-5.61-1.83-11.27-3.56-17-5.09-1.25-.33-2.77.46-4.17.59-1.83.16-4.31.93-5.33.06-1.21-1-1.21-3.52-1.64-5.4-.29-1.29,0-2.89-.66-3.87Q33.8,255,7.86,217.51c-.73-1.06-2.48-1.41-3.69-2.17-1.45-.92-3.59-1.67-4-3s.3-4,1.4-4.72c2.51-1.57,2.56-3.71,2.66-6.05.67-15.36,1.3-30.73,2-46.09.63-13.65,1.41-27.3,1.92-41,.06-1.5-1.29-3-1.86-4.6s-1.82-3.64-1.3-4.84c.62-1.43,2.78-2.25,4.35-3.19s3.45-1.15,4.42-2.33Q28.3,81.95,42.54,64a7.26,7.26,0,0,0,1.21-4.5c-.14-3.6,1.32-5.4,4.83-5.77a5.72,5.72,0,0,0,3.52-1.59q7.5-8.9,14.67-18.06c.67-.86.53-2.33.87-3.48.56-1.87.69-4.36,2-5.35,1-.81,3.49.18,5.31.39,1.18.14,2.48.75,3.5.42q24.2-7.71,48.3-15.72a5.44,5.44,0,0,0,2.73-2.74c1.74-3.69,4.64-4.36,7.89-1.8A5.73,5.73,0,0,0,141,7.09c5-.51,9.91-1.22,14.82-2.12A5.64,5.64,0,0,0,159,2.75c2.46-3.56,5.69-3.67,8.27-.28a5.5,5.5,0,0,0,3.21,2.17q22.54,2.27,45.13,4.17c1.28.11,2.64-1,4-1.4,1.63-.55,3.64-1.84,4.83-1.32,1.4.62,2.14,2.81,3.07,4.38.8,1.34,1.1,3.2,2.22,4.09q30.62,24.55,61.46,48.84c1.18.93,3.26.67,4.85,1.17s3.7.91,4.59,2.1c.75,1,.15,3.08,0,4.68s-.9,3.51-.4,4.92q12.92,36.58,26.18,73c.53,1.45,2.35,2.39,3.46,3.66s3,2.72,3,4c-.07,1.53-1.81,3-2.92,4.48-.87,1.15-2.41,2.06-2.75,3.32q-10.36,38.4-20.42,76.89c-.31,1.18.35,2.61.55,3.92.29,1.81,1.28,4,.65,5.36s-2.89,2-4.43,2.92Zm-202.43-9.44c1,.08,2.2.56,2.91.16,2.41-1.37,4.64-3.05,7.5-5l-1.19-4.29c-1.61,1.85-2.54,3.1-3.65,4.16-1.83,1.75-3.78,3.38-5.68,5.06,1.82-2.5,3.33-5.31,5.52-7.43,3-2.87,3.45-5.78,2.07-9.51-1.18-3.19-2.5-3.81-5-1.56-4.9,4.35-9.69,8.82-14.5,13.26a30.68,30.68,0,0,0-2,2.39c6.87-3.21,8.25-3.25,12.73-1.23C99.62,240.85,100,242,100.37,243.06ZM200,262c-1.32-2.55-3.33-5-3.81-7.67-1.24-6.88-6.12-8.3-12.58-9.24,2,9.25,4,18.08,5.9,26.9l1.45.3c-2.69-6.26,2.26-8.51,4.22-11.06l4.7.66c.44-.82,1.23-1.64,1.24-2.47,0-2.75-.23-5.51-.42-9.15L196.4,249ZM232.42,90.25l.12.13c-1-.13-2.75-.71-3-.34-3.42,5.5-8.5,3.29-12.55,3,1.19,13.59,2.4,27.27,3.6,40.95l-1.86.39-6.8-23.6c-2.63,11.27-5.09,21.7-7.5,32.14-1.3,5.67.73,8.33,6.52,8.5s11.55.19,17.33.26c1.62,0,3.25,0,4.87,0l.62-1.2c-3.22-3-6.49-6-9.63-9-2.44-2.39-1.81-4.08,1.21-5.62,12.38-6.33,24.67-12.84,37-19.26a12.53,12.53,0,0,1,2.33-.67l.64,1.37c-13.47,7.28-27.53,13.5-40.13,20.18,2,2.69,3.84,5.09,5.66,7.48l.92-.29,9.71,3-3.33,2.22.2.48,21-4.44.33,1.42-17.48,4,.19,1.1c4.58,0,9.17-.14,13.74.06,2.38.1,3.71-.77,4.38-2.94,1.92-6.26,4.32-12.42,5.66-18.8,2-9.56,1.83-18.91-7-26.21L222,129.37l-.67-1,36.53-25.76-10.24-4.17c.15-1.12.25-1.94.43-3.34L222.1,117.74l-.87-1,24.92-23-.64-1.55c-3.95,6.26-8.41,2.47-11.87,2ZM73.48,230.48c2.84.78,5.68,1.59,8.54,2.29.39.09.94-.39,1.39-.66,5.64-3.35,11.27-6.73,16.93-10.07,2.51-1.48,2.38-3.83,1.24-5.73s-3-2.55-5.31-.8c-6,4.48-12.18,8.71-18.36,12.94a31,31,0,0,1-4.55,2.13c.93-1.18,1.65-2.66,2.83-3.48,5.72-4,11.56-7.77,17.34-11.65,1.13-.76,2.17-1.63,3.34-2.51-7.06-6.41-7.06-6.41-14.75-2.42-2.45,1.27-4.87,2.58-7.32,3.84-2.11,1.09-4.23,2.13-6.35,3.19l-.73-1.36C73.47,211.65,81,210,87.3,205.43c-3-2.2-5.45-5.25-8.34-5.75-3.11-.55-6.64,1.3-10,2.1l-.49-.94,7.68-3.6-6.82-5c-3.41,8.69-4.21,18.69-2.48,29-5.34-8.43-6.86-19.08-4.6-30.73.26-1.3.05-3.45-.8-4.1-12.24-9.3-24.61-18.42-37-27.54-.56-.41-1.76-.77-2.06-.5a3,3,0,0,0-.88,2.28c.36,2.6,1,5.16,1.49,7.73Q31.36,208.67,39.71,249c1.21,5.83,3.81,6.94,9,3.86,7.67-4.57,15.37-9.11,23-13.69,1.77-1.06,3.46-2.22,5-3.2C75.49,233.89,74.47,232.19,73.48,230.48ZM268.15,216c-.68-4.08-1.35-8.17-2.06-12.25,0-.21-.3-.38-.82-1l-5.09,7.67a36.72,36.72,0,0,1,4.57,2.35,32.39,32.39,0,0,1,3.41,3.23L267,219.18l-.71-.28c.26-.9.51-1.79.76-2.65a56.39,56.39,0,0,0-6.2-3,3.21,3.21,0,0,0-2.89.7c-1.78,2.38-3.23,5-4.89,7.65l6.42,4.65-.67,1.26-7.35-3.75q-3.62,5.87-7.18,11.67l.86,1.16,17.88-9.93c-4.47,7.31-10.77,13.56-19.39,16.4-5.32,1.75-8.21,5.21-10.66,9.58-.56,1-1,2.67-.57,3.42s2.22,1.22,3.31,1.09q30.67-3.79,61.33-7.8c2.56-.33,6.32-5.27,6.1-7.85q-3.06-34.73-6.11-69.46c-.4-4.58-1-9.15-1.47-13.72l-1.24-.25a30.9,30.9,0,0,0-2.3,2.83c-6.58,10.14-13.17,20.26-19.61,30.49a8.76,8.76,0,0,0-1,4.77C271.74,203,271.75,209.8,268.15,216ZM171,103.49c-.52-1.29-1.52-2.6-1.49-3.87.22-8.54.67-17.07,1-25.6,0-1-.08-1.93-.12-2.94C159.92,72.71,160,72.7,160.85,82.5c.49,5.73.66,11.49,1,17.23l-1,0c-.79-8.38-1.59-16.75-2.42-25.42-1.67.41-2.68.6-3.66.91-6.29,2-6.37.69-4.87,7.86.73,3.5,1.26,7,1.88,10.56l-1,.22c-1.28-5.34-2.56-10.68-3.92-16.37l-9.23,2.87,2.19,8-1,.34c-1.08-2.55-2.17-5.1-3.7-8.73-2.36,1.94-4,4.12-6.17,4.86s-5,.17-7.56.17l-.21,1c16,2.33,30.17,9.18,43.48,17.92l-.29,1.13-44.59-12.1-.27,1.07c2.42,1.9,4.74,4,7.27,5.69q34.33,23.47,68.72,46.86c3.84,2.6,6.71,1.44,7.76-3,2.08-8.81,3.62-17.8,6.34-26.4s1.15-16.39-2.12-24.36c-3.89-9.49-9-18.11-16.33-25.31-.91-.9-2.52-1.86-3.55-1.63s-1.71,2-2,3.19c-.87,3.43-1.5,6.93-2.17,10.41-1.15,6-2.26,12-3.38,17.89,3.07-1.46,5-4.69,8.94-3,2-6.2,4-12.6,6.05-19l1.45.4c-1.51,5-3,10-4.65,15.43l8.31-2.54,6.44,5.36c-9.28,3-17.46,5.78-25.77,8.15-3.15.89-6.58.77-9.9,1.1,1.84-1.41,3.7-2.78,5.49-4.25.89-.72,2.16-1.52,2.35-2.46,1.45-7.47,2.7-15,4-22.49.38-2.26.6-4.55.92-7-10.89,1.53-10.88,1.53-11.56,11.5-.07,1-.25,2.09-.29,3.14Q171.33,92.69,171,103.49Zm5.4,175.05c-3.13.13-2.7-2.3-2.83-4.12-.64-9-1.26-18.07-1.74-27.12-.4-7.45-.32-7.46-8.54-8.79q-.85,19.31-1.72,38.51h-1.38a27.13,27.13,0,0,1-.33-3.9c.54-10.1,1.16-20.18,1.74-30.27.34-5.91-.64-6.87-7.28-6.92-1.92,10.86-3.85,21.79-5.79,32.72l-1.76-.31c2-10.78,4.06-21.55,6.07-32.19l-7.71,4V237l.09.07c-1.43-1.26-3.12-1.77-3.52.58-.87,5.27-4.88,5.84-7.59,6.45-2.06-1.47-3.23-2.43-4.52-3.2a22.71,22.71,0,0,0-3-1.25l.43-.95,18.13-5.38,0-1.2-24.33-7.84c6,26.23,18.65,46,43.24,56.22-10.19-.36-19.67-3.55-27.74-10.65-12.9-11.34-19-26.09-22-42.54-.4-2.23.83-6.54-3.29-5.67s-1.9,4.54-1.3,7.16a3.13,3.13,0,0,0,.59.92l2.7-.92c-.09.72,0,1-.17,1.23-2.88,4.41-2.14,6.67,2,10.12,1.67,1.41,2.13,4.26,3.2,6.58l-3.19,1.2a4.45,4.45,0,0,0,0,1q7.5,29.79,15,59.57c.85,3.34,4.5,4.64,7.62,2.82q27.74-16.21,55.46-32.46c9.52-5.58,19.08-11.11,28.55-16.77,1.06-.63,1.68-2,2.5-3a15.3,15.3,0,0,0-3.16-2.36c-2.29-1-4.78-1.46-7.07-2.41-2.58-1.07-4.13-.73-5.69,1.92a52.33,52.33,0,0,1-19.74,19.41c-5.65,3.17-13,4.76-17.57,3.78l5.65-.92c3.06-3.07,5.33-7.52,11.07-6.26-1.43-7.22-2.84-14.56-4.33-21.88s-1.95-7.6-10.33-8.64C173.92,254.07,175.14,266.3,176.36,278.54Zm-13.31-48.9c.22,2.32-.34,5.27.87,6.8s4.28,1.94,6.9,3l.41-5.86c2,7.3,2.41,7.69,9.66,8.53l.74-2.63c1,5.73,6.07,5,9.59,6.37.59.24,1.63-.68,1.51-.62,3.48,1.51,6.43,3.45,9.62,4,2.82.46,5.9-.65,8.87-1.07l-.63,2.08c.94,1,1.71,2.39,2.87,2.92a34.32,34.32,0,0,0,7.46,2.45c1.44.29,4.14.11,4.37-.54a10.13,10.13,0,0,0,.06-5.75c-.22-.79-2.12-1.63-3.25-1.61-20.13.19-37.42-7.77-53.73-18.78,18.44,1.62,35.09,12.67,54.23,10.74,0-6-2.36-12.44-5.07-14.34,1.36,4.35.17,8.92-2.5,9.61.29.88.57,1.76.86,2.64l-.66.41-1.93-2.1-4.49,1.8c1.61-6.63,3.19-12.18,4.27-17.83.89-4.59,2.42-9.54,1.52-13.88-3.14-15-7.2-29.85-10.94-44.75-1.69-6.72-3.77-7.47-9.45-3.45l-69.56,49.16c-6.86,4.85-6.78,4.83-5,13,.48,2.19,1.35,3.36,3.56,4,7.28,2.22,14.45,4.81,21.76,6.93,2.09.61,4.51.24,6.76.07,3.81-.29,7.61-.78,11.4-1.19l-6.78,5,5.26,1.49C162.15,233.76,162.6,231.7,163.05,229.64Zm-49.93-30.28.52-.09,4.5,10.61c1-.63,2-1.12,2.8-1.72Q158,182,195,155.82c3.76-2.65,3.5-5.77-.62-8.58q-33.73-23-67.48-45.93c-1-.69-2.12-1.25-3.53-2.08-.68,2.26-1.29,4-1.71,5.75-1.73,7.41-3.13,14.91-5.17,22.23-1.55,5.56-1.89,5.46-7,3.44-.17-.06-.46.17-.94.37v6.77l2.76-1c-1,2.62-2.83,5.21-2.93,7.86-.52,14.05-.68,28.12-.78,42.18,0,1.83,1.07,3.64,1.52,5.49.29,1.17.88,3.11.4,3.48-3.65,2.8-1.48,6.29-2.17,9.83l3.74-1.51c-.52,1.3-1.88,1.84-2.18,2.74a26.17,26.17,0,0,0-1.32,6.89c0,.43,2.15,1.55,3.09,1.34,2.63-.59,2.51-2.93,2.48-5.09C113.09,206.44,113.12,202.9,113.12,199.36ZM170.33,52.85a43.55,43.55,0,0,1,22.51,7.42,7.87,7.87,0,0,0,5.67.92c6.11-1.48,12.13-3.38,18.14-5.26A15.31,15.31,0,0,0,220,53.8c-1-.92-1.79-2.15-2.93-2.72Q178.9,31.9,140.66,12.85c-3.79-1.89-7.42-.34-8.73,3.69-.61,1.87-1.19,3.75-1.78,5.63q-9.34,29.44-18.69,58.91c-1,3.21.19,5,3.44,4.54,3.08-.4,6-1.07,7.72-4.51A56.88,56.88,0,0,1,129,71.19c7.86-10,17.68-16.76,30.69-18a9.31,9.31,0,0,1,2.08.25V54l-2.76.56,1.29,17.76a57.54,57.54,0,0,1,5.86-1.45c3.89-.53,5.19-2.64,4.86-6.47-.23-2.67.26-5.41.42-8.12l1.46,0v12.6L187,64.34l.45-1.05ZM259.11,210l6.17-9.65-28.55-9.93.39-1.15,28.94,9c-1.41-3.67-2.65-6.88-3.91-10.17l3.91-1.38-18.83-4,.23-1.23,17.93,2.87.78-1.42c-7.1.85-8.52-4.24-10.77-8.67L261,167.7l10.25,22.85c.53-.66,1.22-1.39,1.76-2.21q9.09-14.07,18.14-28.19c2.42-3.8,1.31-5.77-3.32-6-5.25-.19-10.52-.08-15.75-.52-3.58-.29-5.87.45-7.29,4.11a36.91,36.91,0,0,1-4.68,7.72c-9.92,14-23.62,23.21-38.89,30.59,10.62-15.31,28.71-24.23,36.61-42.26H247.8l3,3.28-2.21,1,.69.67,3.22.22.14.65-3.32,1.46.84.32-1.47,3.77c-3.93-3.87-7.21-7.27-10.71-10.44a7.2,7.2,0,0,0-4.09-1.84c-8.14-.37-16.28-.55-24.43-.68a5.22,5.22,0,0,0-5.23,6.74q4.29,17.38,8.65,34.77c.93,3.7,1.88,7.39,2.94,11.59,3.51-5,3.51-5,8.07-2.08l11,7,17.07,10.88,5.9-9.41L226.55,196.1l.5-1ZM44.56,258.22c1.53,1.53,2.44,2.84,3.68,3.64q38.07,24.52,76.24,48.89a15,15,0,0,0,3.81,1.18c.07-1.32.46-2.73.16-4-4.75-19.09-9.63-38.14-14.35-57.23-.62-2.51-1.74-3.21-4.28-3.33-10.65-.46-20.72-3-29.62-9.27a4.63,4.63,0,0,0-4-.27c-9.57,5.48-19,11.14-28.46,16.84C46.64,255.35,46,256.6,44.56,258.22Zm57.75-172a23.79,23.79,0,0,0-2.56-1.83Q77.15,73.28,54.53,62.2A5.93,5.93,0,0,0,46.41,66q-12.06,40.34-24,80.69a44,44,0,0,0-.79,5c2-1.25,3-1.78,3.86-2.43,9.31-6.86,18.58-13.76,27.9-20.6,5.06-3.7,10.61-6.93,12-13.8,0-.24.52-.39,1.18-.83l-1,4c5.4-1.43,8.38-4.94,12.17-7.73l-4.4-3.36c2.84-.18,5.71,1.35,7.92.67,2.8-.85,5.06-3.48,7.5-5.31l-2.08-3.63c5.79,2.89,8.1-.93,10.89-3.66-10,1.65-19.25,5.08-27.27,11.51C77.35,94.57,88.42,88.81,102.31,86.24Zm193.28,4.53h.8c0-4.6,0-9.2,0-13.8,0-3.31-4.21-8.63-7.48-9.29Q260.76,62,232.58,56.42a16.32,16.32,0,0,0-4,.18c.39,1.26.5,2.74,1.23,3.76q30.84,43.32,61.84,86.53a15.68,15.68,0,0,0,2.8,2.43,14.68,14.68,0,0,0,1.08-3.8C295.61,127.27,295.59,109,295.59,90.77Zm-160,223.13.29,1.66c6.11,0,12.22,0,18.32,0q33.14.19,66.27.4a7.55,7.55,0,0,0,7.89-7.94c-.09-13.54-.25-27.08-.36-40.62-.05-5.72-1.92-6.77-6.94-3.83Q179.69,287.78,138.39,312C137.41,312.57,136.5,313.26,135.56,313.9ZM131.56,14c-.24-.45-.55-1.6-.95-1.64a5.16,5.16,0,0,0-2.84.64Q91.44,33.91,55.18,55a5.13,5.13,0,0,0-2.4,3.42c-.06.9,1.43,2.28,2.54,2.84,15.26,7.62,30.57,15.14,45.87,22.68,4.4,2.17,8.12.62,9.58-4l19.72-62.26C130.84,16.55,131.14,15.41,131.56,14ZM67,148.67l-.32,1c3.67.92,7.33,1.4,9.07,5.63s2,4.5-3.73,9.49c-2.16-4.17-4.52-8.11-6.32-12.29A49.41,49.41,0,0,1,62,124c-1.48.93-2.39,1.4-3.21,2q-16.15,12-32.29,24c-3.94,2.94-3.85,6.09.17,9.08q16.62,12.36,33.25,24.69c1,.74,2.1,1.38,3.48,2.28,7.65-22.45,24.15-36.32,44.07-47.19l-40.95-19-.63,12.44L96.3,142.84,95.91,144,63.65,133.92c5.24,5.1,5.24,5.1,6.62,11.29l-3.42,1.26,18.73,4-.27,1.27ZM301.09,252.12,300,250.36a25.67,25.67,0,0,0-2.91,0c-4.82.59-9.63,1.24-14.45,1.85L236.94,258c-3.11.39-7.87,4.91-7.87,7.71q0,21.87.19,43.74c0,1,.66,2.69,1.32,2.86a4.3,4.3,0,0,0,3.32-1c5.65-4.9,11.26-9.87,16.7-15a6.49,6.49,0,0,0,1.53-4c.27-3.44,1.85-4.86,5.17-5.06a9.55,9.55,0,0,0,5.42-1.87c11.74-10.31,23.31-20.81,35-31.21A20.88,20.88,0,0,1,301.09,252.12ZM139,9.35l-.15,1c1,.58,1.86,1.23,2.85,1.73q38.18,19.08,76.36,38.14c3.54,1.76,5.85.34,5.76-3.63-.21-9.31-.57-18.62-.83-27.94-.12-3.91-3.94-7.91-7.89-8Q181.05,10,147,9.35C144.34,9.3,141.67,9.35,139,9.35Zm154.12,58.1a13,13,0,0,0-1.3-1.93Q260.08,40.28,228.28,15.1a3.57,3.57,0,0,0-3-.68c-.71.37-1.17,1.88-1.15,2.88.24,10,.57,19.93.92,29.9.07,2,5.47,7.63,7.58,8.06q18.87,3.84,37.74,7.7C277.61,64.43,284.9,65.83,293.12,67.45Zm11.22,175,.73.09a27.54,27.54,0,0,0,1-2.75q2.51-9.11,4.93-18.23,7.51-28.33,15-56.68c1-3.62-1.24-7.6-4.55-8q-9-1-18-1.75a5.91,5.91,0,0,0-6.41,6.35q2.76,31.59,5.57,63.16C303.14,230.64,303.76,236.56,304.34,242.49Zm-266,11,1.24-.49q-9.74-46.69-19.49-93.37H18.87c-.46,1.46-1,2.91-1.37,4.38-3.44,12.66-6.85,25.33-10.33,38-.68,2.45-1.46,4.67.81,6.85.65.63.38,2.2.62,3.32.37,1.73.34,3.82,1.32,5.12,5.69,7.55,11.63,14.92,17.48,22.35ZM298.55,75l-.74.13a28.83,28.83,0,0,0-.34,2.91q-.42,32.52-.8,65c-.08,7.92,2.22,10.49,10.14,11.43,4.43.53,8.89.79,13.32,1.32,5.23.63,6.93-1.28,5.19-6.18q-11.22-31.51-22.51-63C301.42,82.73,300,78.87,298.55,75ZM46.05,63.45,45.27,63c-.85,1-1.74,1.86-2.54,2.85Q29.64,81.93,16.58,98c-2,2.46-4.74,4.62-3.14,8.46a2,2,0,0,1-.41,1.84c-3.39,2.66-1.73,5.9-1.09,9q2,9.63,4.15,19.24c1,4.4,2,8.78,3.06,13.17l1.22.06ZM45,261.1l-.83.72c.55,1.09,1.07,2.22,1.68,3.29q6.91,12.15,13.88,24.3c1.28,2.24,2.18,4.77,5.61,4.72a3.82,3.82,0,0,1,2.81,2.36c.62,2.6,2.47,3,4.54,3.54,9.79,2.51,19.56,5.09,29.34,7.62,7.57,2,15.15,3.86,22.73,5.79l.4-.9Zm61.55-116.77c-4.86,4.31-9.46,8.21-13.86,12.32-9.4,8.79-17.22,18.75-21.94,30.87-.46,1.18-.81,3-.22,3.89,2.87,4.21,7.7,5.53,12.54,3.85l11.15-3.86,4.85-1.73L92.48,185l2.39-2.26-21.51,4.68-.34-1.5,21.34-4.67c-5.13,1-9.2-.37-11.45-4.2.38-2.06,1.32-4.22.78-4.69-2.62-2.29-.17-2.8.59-3.79L105.47,188l1.07-.53ZM125.1,13.17l-.26-.64a6.65,6.65,0,0,0-1.42.17L78.86,27.21c-2.86,4.21-7.4,6-11.61,8.37-1.7,1-2.7,3.16-4,4.81l-11.15,14,.67.72ZM10.22,114.5l-1.09.07c-1.33,29-2.67,58-4.05,88a13.85,13.85,0,0,0,1.5-2.42c3.54-13,7.08-26.06,10.48-39.12a4.74,4.74,0,0,0-.8-3.38c-1.54-2.27-1.45-4.23,0-6.52a7.41,7.41,0,0,0,.93-4.11,33,33,0,0,0-1.05-5.4Q13.2,128.09,10.22,114.5ZM217.81,85.89a62.13,62.13,0,0,1,34,7.92C244,82.28,236.08,71.09,228,60a3.06,3.06,0,0,0-2.51-1.14,3.23,3.23,0,0,0-1.89,2.08C221.68,68.9,219.87,76.92,217.81,85.89ZM137,316.78l-.24.58c6,2.43,12,4.82,18,7.3,2.21.92,4.16,1.79,6.6.13,1-.67,3.57-.5,4.32.31,2.25,2.42,4.65,1.76,7.21,1.29,9.67-1.76,19.34-3.48,29-5.26,5.48-1,10.94-2.13,16.41-3.19l-.14-1.16ZM214.85,90.56c1-2.76,1.83-4.73,2.34-6.8q2.82-11.64,5.43-23.32c.58-2.63-1.27-4.42-3.42-3.9-7.44,1.8-14.75,4.14-22.91,6.51C205.32,70.86,210.72,80.16,214.85,90.56ZM271,120l-1.16.17c3.34,10.9,1.69,21.47-2.48,33,8.08,0,15.37.16,22.65-.11,2.12-.08,3.09-2,1.69-4C284.87,139.31,277.93,129.66,271,120ZM68.87,118.5l38,18.78c.39-3.7,2.41-7.07-1.25-9.46C97.47,122.5,89.25,117.33,81,112.18c-.77-.48-2.2-.9-2.78-.52C75.23,113.64,72.39,115.89,68.87,118.5ZM250.81,222.82,219.94,202.2c-.16,3.36-.28,5.86-.43,8.9l25.26,21.11C246.87,229,248.75,226,250.81,222.82Zm-30.46-9.2c-3.7,11.49,5.34,16.51,10.61,23.32l-1,.89-7.91-7.89c.81,3.54,1.22,6,2,8.26a2.8,2.8,0,0,0,2.18,1.59,132.4,132.4,0,0,0,14.3-2.52c3-.77,3.28-3.09,1-5.18-1.95-1.76-4-3.44-5.95-5.17C230.55,222.54,225.55,218.16,220.35,213.62ZM106.61,126.79l1-.64c-.51-3.53,1.85-7.45-2-10.54-4.57-3.72-9-7.58-13.61-11.3-.7-.56-2.15-1.19-2.66-.86-2.79,1.78-5.38,3.86-8.47,6.14ZM79.77,198.32c2.46,1.89,4.51,3.26,6.33,4.89s3.5,1.67,5.65.5c3.91-2.14,8-4,12-6,3.39-1.74,3.41-2.89.51-5.27-.71-.58-1-1.7-1.48-2.64Zm27.33-83.4c2-8,.75-14.15-5.78-18.89l1.38-.72,4.9,4.06V93.68c-7.14-1-10.48,4.55-15.87,7.7C97,106,101.82,110.28,107.1,114.92Zm41.42-39c3.08-.92,5.52-1.49,7.81-2.43a3.28,3.28,0,0,0,1.8-2.38c-.3-5.52-.85-11-1.41-17.51-2.45,5.26-8.07,8.62-11.23,7.17C146.49,65.8,147.46,70.64,148.52,75.93ZM91.1,205.82l-.18,1c3.24,1,4.65,6.22,9,4.18,6.44-3,7.3-5.39,5.71-12.77Zm46-126.59c2.93-.82,5.44-1.45,7.9-2.27.6-.2,1.47-1.11,1.39-1.54-.89-4.81-1.94-9.59-2.94-14.38l-1.57-.29c2.91,6.27-2.06,8.57-5.16,12.46-.48-1.1-.88-2-1.27-2.91l-1.11.82Zm-23.22,27.46c1.07-3.12,2.11-6.09,3.1-9.08,1.17-3.5-1.46-4.85-7.37-3.75C107.94,99.16,109.11,103.53,113.83,106.69ZM199.37,8.76l0-.26c-9.73-.9-19.45-1.88-29.19-2.63-1.25-.09-2.59,1-3.88,1.52l.38,1.37Zm-89.82,96.29c-2,9.82-1.31,12,4.45,15.51-.19-2-1.24-4.69-.48-6.74C115.15,109.42,112.21,107.7,109.55,105.05ZM85.11,237.84l15.55-13.6-.55-.75L84.4,232.81C84.71,235,84.9,236.29,85.11,237.84Zm27.78-107c.35-2.73.69-5.34,1.07-8.23-.39-.33-1.17-1-2-1.67s-1.66-1.16-2.54-1.77C107.14,125.11,108,127.94,112.89,130.86Zm123,115-9.5,1.8a22.86,22.86,0,0,0,1,3.89,4.78,4.78,0,0,0,2.08,2.37c.49.2,1.73-.83,2.28-1.57C233,250.64,234.08,248.71,235.84,245.91Zm-211.25-6.2,11.49,16.74C37.52,254,31.83,245.37,24.59,239.71ZM159.71,8.41c-1.94-2.82-8.09-2.67-13.31,0Zm-50,302.27-.4.95,16.57,4.95.42-1.51Zm-9.33-97.87,0,1.6c1.52.11,3.61.87,4.43.16,1.07-.93,1.13-3,1.62-4.61l-1.16-.61ZM49,275.32c-.74-5.44-5.25-12.18-8.6-12.53Z"/><path class="cls-1" d="M230.89,145c.36-.76.54-2,1.11-2.23,10.5-4,21.05-7.8,31.59-11.67l.61.89a14,14,0,0,1-2.91,1.95c-7.53,2.67-15.1,5.18-22.63,7.85-2.33.82-4.56,1.94-6.84,2.92Z"/><path class="cls-1" d="M232.42,90.25c-1.44,2.09-2.75,4.29-4.36,6.24-2.32,2.83-4.87,5.47-7.33,8.2l-1.09-.92c2.94-3.51,5.8-7.1,8.87-10.5a22.44,22.44,0,0,1,4-2.89Z"/><path class="cls-1" d="M145.09,237q-3,8.43-5.94,16.86c-.45,1.28-.83,2.57-1.23,3.86l-1.1-.21a14.46,14.46,0,0,1,.33-3.11c1.64-5.1,3.29-10.21,5.19-15.22.35-.93,1.84-1.43,2.82-2.12Z"/></g></g></svg>