<svg xmlns="http://www.w3.org/2000/svg" viewBox="0 0 223.97 358.19"><defs><style>.cls-1{fill:#00c421;}</style></defs><g id="Calque_2" data-name="Calque 2"><g id="logo_sidaction" data-name="logo sidaction"><path class="cls-1" d="M71.32,130.63c-3.81-3.5-7.57-6.47-10.75-9.95C41.26,99.52,35.51,74.94,44.87,48c9.22-26.54,28.62-42.56,56.45-47a71.34,71.34,0,0,1,82,61.9c5,42-27.41,79.36-69.69,80-25.24.4-47.28,8.53-65.38,26.21S20.77,208.64,20.5,234c-.28,26.38-.06,52.75-.06,79.13,0,.8,0,1.6,0,2.4.64,14.69,8.5,22.34,23.22,22.61,12.24.22,23.35-3.72,34-9.34,3.78-2,7.59-3.27,11.78-1.59,3.64,1.44,6.15,3.92,6.54,8a8.18,8.18,0,0,1-4.15,8.39C76.19,352.85,59.64,358.92,41.16,358c-23.78-1.14-40-16.91-40.4-40.68C.21,287.9-.72,258.36,1,229c2.54-44.9,25.67-76.94,66.19-96.44C68.44,131.93,69.76,131.34,71.32,130.63ZM112.42,20a51.49,51.49,0,1,0-.35,103c28.3.09,51.56-22.78,51.69-50.84C163.9,43.11,141.21,20.06,112.42,20Z"/><path class="cls-1" d="M126.52,314.44c10.13,9.08,21.07,15.92,33.57,20.17,8.64,2.94,17.45,4.66,26.6,3,9.65-1.79,15.32-7.66,16.78-17.35a52.86,52.86,0,0,0,.56-7.85c0-25.57.18-51.15,0-76.73-.24-31.31-13.06-56.4-38.08-75.25l-1.37-1c-5.32-3.92-6.7-9.35-3.53-13.84,3.32-4.69,10.24-5.78,15.31-2.22A111.51,111.51,0,0,1,224,235.77c-.08,25.91,0,51.83,0,77.75,0,10.39-2,20.26-8.48,28.7-9.63,12.62-23.13,16.7-38.21,15.87-26-1.44-47.66-13-65.93-30.74-20.63-20-40.48-40.89-60.78-61.28-17.24-17.31-18.6-44.4-3-62.81A46.11,46.11,0,0,1,110,195.94c2,1.41,3.25,1.56,5.34.14,20.06-13.7,46.56-10.12,61.81,8.2,15.38,18.5,14,45.16-3.24,62.52q-22.47,22.57-45.06,45.05C128.15,312.57,127.5,313.35,126.52,314.44Zm-13.38-13.59a63.91,63.91,0,0,1,4.8-6.25c14.29-14.44,28.9-28.58,42.94-43.27C174,237.58,168,215,149.93,209.07c-10.58-3.47-19.79-.63-27.6,7.09-3.21,3.18-6.32,6.46-9.72,9.94-3.87-3.95-7.31-7.44-10.73-10.94a26.47,26.47,0,0,0-13.2-7.54,26.09,26.09,0,0,0-24.21,44c11.17,11.27,22.45,22.43,33.64,33.68C102.83,290.11,107.45,295,113.14,300.85Z"/><path class="cls-1" d="M113.14,300.85c-5.69-5.87-10.31-10.74-15-15.5-11.19-11.25-22.47-22.41-33.64-33.68a26.09,26.09,0,0,1,24.21-44,26.47,26.47,0,0,1,13.2,7.54c3.42,3.5,6.86,7,10.73,10.94,3.4-3.48,6.51-6.76,9.72-9.94,7.81-7.72,17-10.56,27.6-7.09C168,215,174,237.58,160.88,251.33c-14,14.69-28.65,28.83-42.94,43.27A63.91,63.91,0,0,0,113.14,300.85Z"/></g></g></svg>