<svg xmlns="http://www.w3.org/2000/svg" viewBox="0 0 275.97 321.81"><defs><style>.cls-1{fill:#0025cb;}</style></defs><g id="Calque_2" data-name="Calque 2"><g id="logo_sidaction" data-name="logo sidaction"><path class="cls-1" d="M0,78.8c0-4.7,0-9.4,0-14.1C0,60.79,3.26,58,7.28,57.91c8.82-.16,17.66-.13,26.45-.8A128.12,128.12,0,0,0,66,50.2,135.69,135.69,0,0,0,99.41,33,178.7,178.7,0,0,0,131.46,3.9c1.41-1.62,2.77-3.35,5.12-3.77a6.79,6.79,0,0,1,6.56,2.26c4.22,4.51,8.34,9.12,12.75,13.45A148.63,148.63,0,0,0,199.23,46a134.22,134.22,0,0,0,38.46,10.64,203.76,203.76,0,0,0,30,1.34c4.44-.1,7.28,1.76,8,5.33a11.86,11.86,0,0,1,.16,3c-.48,12.62-.73,25.26-1.57,37.86-.69,10.21-1.9,20.4-3.23,30.55a351.23,351.23,0,0,1-7.26,37.57,269.85,269.85,0,0,1-15,45c-2.81,6.37-6,12.59-9.41,18.65a210.17,210.17,0,0,1-30.71,41.37,181.1,181.1,0,0,1-31.78,26.83c-11.05,7.28-22.72,13.34-35.45,17.2a11.73,11.73,0,0,1-7.13,0,136.88,136.88,0,0,1-33.6-16.08A187.89,187.89,0,0,1,57.29,266a211.86,211.86,0,0,1-22.67-33.36,229.35,229.35,0,0,1-16.15-38,320.59,320.59,0,0,1-9.09-33.92c-2.72-12.75-4.71-25.61-6.21-38.56C1.5,107.73.63,93.28,0,78.8Zm262.48-7.4C212.36,72.63,171.33,53.56,138,16.85c-16.28,17.52-34.43,31.95-56.11,41.6S37.35,71.77,13.59,71.51c0,1,0,1.73,0,2.51a425.22,425.22,0,0,0,3.21,47.73c1.39,10.73,3.36,21.37,5,32.07.49,3.23,2.1,6.33,1.31,9.74,0,.19.23.44.34.68a15,15,0,0,1,1.22,2.68,295.25,295.25,0,0,0,10.47,34.16,193.81,193.81,0,0,0,24.42,45.68,189.49,189.49,0,0,0,34.8,37.09,144,144,0,0,0,40.25,23.3,9.24,9.24,0,0,0,6.84,0c15.75-5.78,29.75-14.52,42.58-25.19a180,180,0,0,0,22.89-23,207.73,207.73,0,0,0,19.68-27.76,198.46,198.46,0,0,0,16.2-35.35,304.93,304.93,0,0,0,10.31-36.69,361,361,0,0,0,6.34-39.06c1.12-10.55,1.79-21.16,2.49-31.75C262.28,82.84,262.3,77.29,262.49,71.4Z"/><path class="cls-1" d="M262.49,71.4c-.19,5.89-.21,11.44-.58,17-.7,10.59-1.37,21.2-2.49,31.75a361,361,0,0,1-6.34,39.06,304.93,304.93,0,0,1-10.31,36.69,198.46,198.46,0,0,1-16.2,35.35A207.73,207.73,0,0,1,206.89,259,180,180,0,0,1,184,282c-12.83,10.67-26.83,19.41-42.58,25.19a9.24,9.24,0,0,1-6.84,0,144,144,0,0,1-40.25-23.3,189.49,189.49,0,0,1-34.8-37.09,193.81,193.81,0,0,1-24.42-45.68,295.25,295.25,0,0,1-10.47-34.16,15,15,0,0,0-1.22-2.68c-.11-.24-.38-.49-.34-.68.79-3.41-.82-6.51-1.31-9.74-1.61-10.7-3.58-21.34-5-32.07A425.22,425.22,0,0,1,13.59,74c0-.78,0-1.55,0-2.51,23.76.26,46.63-3.4,68.34-13.06S121.76,34.37,138,16.85C171.33,53.56,212.36,72.63,262.49,71.4Zm-6.81,21c0-6.66,0-11.16,0-15.65A2.53,2.53,0,0,0,252.94,74c-.48,0-.95,0-1.43,0a161.64,161.64,0,0,1-37.95-3.24C192.12,66.11,173.42,56,157.18,41.39,151.31,36.1,146,30.18,140.46,24.54c-1.82-1.86-3.15-1.88-4.92,0-3.78,4-7.47,8.06-11.37,11.91a133.5,133.5,0,0,1-34.75,24.9,113.19,113.19,0,0,1-39.16,11.4c-8.75.87-17.59.92-26.4,1.26-2.79.11-3.67.78-3.55,3.58.48,12.19.86,24.39,1.6,36.57a310.53,310.53,0,0,0,5.16,39.24,283.66,283.66,0,0,0,8.81,34.77A198.53,198.53,0,0,0,49.6,221,184.75,184.75,0,0,0,73,254.75a157.42,157.42,0,0,0,38.26,32.46,101.2,101.2,0,0,0,24.92,11.15,7.36,7.36,0,0,0,3.84-.06c13.8-4.09,26-11.18,37.51-19.71a161.3,161.3,0,0,0,23.19-21.29,193,193,0,0,0,16.78-21.63A166.89,166.89,0,0,0,230.85,212,238.82,238.82,0,0,0,246,166.86a313,313,0,0,0,7-41.81C254.15,113.49,254.92,101.89,255.68,92.45Z"/><path class="cls-1" d="M255.68,92.45c-.76,9.44-1.53,21-2.64,32.6a313,313,0,0,1-7,41.81A238.82,238.82,0,0,1,230.85,212a166.89,166.89,0,0,1-13.33,23.72,193,193,0,0,1-16.78,21.63,161.3,161.3,0,0,1-23.19,21.29c-11.47,8.53-23.71,15.62-37.51,19.71a7.36,7.36,0,0,1-3.84.06,101.2,101.2,0,0,1-24.92-11.15A157.42,157.42,0,0,1,73,254.75,184.75,184.75,0,0,1,49.6,221a198.53,198.53,0,0,1-13.72-32.83,283.66,283.66,0,0,1-8.81-34.77,310.53,310.53,0,0,1-5.16-39.24c-.74-12.18-1.12-24.38-1.6-36.57-.12-2.8.76-3.47,3.55-3.58,8.81-.34,17.65-.39,26.4-1.26a113.19,113.19,0,0,0,39.16-11.4,133.5,133.5,0,0,0,34.75-24.9c3.9-3.85,7.59-7.93,11.37-11.91,1.77-1.86,3.1-1.84,4.92,0,5.55,5.64,10.85,11.56,16.72,16.85,16.24,14.6,34.94,24.72,56.38,29.39A161.64,161.64,0,0,0,251.51,74c.48,0,1,0,1.43,0a2.53,2.53,0,0,1,2.73,2.79C255.69,81.29,255.68,85.79,255.68,92.45Zm-230-13.29c0,1,0,1.62,0,2.2a426.5,426.5,0,0,0,4.05,55,306.78,306.78,0,0,0,10.55,47.85C45.36,200.46,52,216,61.37,230.39a184.23,184.23,0,0,0,20.46,26.17,152.24,152.24,0,0,0,23.66,20.53c9.67,6.73,19.9,12.34,31.19,15.89a4.45,4.45,0,0,0,2.58,0c3.1-1,6.2-2.1,9.2-3.4a129.59,129.59,0,0,0,29.36-18,175.56,175.56,0,0,0,53.35-74.26A261,261,0,0,0,242.29,159,301.9,301.9,0,0,0,248,122.37c1.05-11.89,1.56-23.82,2.26-35.74.13-2.36,0-4.73,0-7.47-45.48,2-82.56-15.3-112.26-49.44C108.19,63.9,71.16,81.1,25.66,79.16Z"/></g></g></svg>