<svg xmlns="http://www.w3.org/2000/svg" viewBox="0 0 272.87 307.34"><defs><style>.cls-1{fill:#0025cb;}</style></defs><g id="Calque_2" data-name="Calque 2"><g id="logo_sidaction" data-name="logo sidaction"><path class="cls-1" d="M72.46,194.23c-.33-4-.43-8.14-1-12.15q-4.55-31-9.3-62c-2.44-16-5.07-31.91-7.43-47.89C53.47,63.84,52.05,55.41,51.78,47a26.85,26.85,0,0,1,6.46-18.78c3.27-3.84,6.86-6.46,11.56-7.56C76,19.19,81.43,20.92,86,25.22A36.61,36.61,0,0,1,96.37,42.49c4.93,17.54,9.69,35.13,14.52,52.69.28,1,.62,2,.93,3l.82,0c.5-2.32,1.06-4.62,1.5-7,4.35-22.83,8.73-45.66,13-68.52.8-4.31,1.67-8.48,4.12-11.77,2.71,0,5.11.09,7.49-.07.52,0,1.28-.87,1.41-1.45A17.38,17.38,0,0,0,140.27,6c0-4.43.43-4.77,4.91-5.61,11-2.07,20,5.55,23.08,16.81a68.42,68.42,0,0,1,1.83,14c1.14,20.88,2.08,41.76,3.13,62.64.18,3.58.53,7.16.8,10.74l.76.18c.37-.81.78-1.6,1.09-2.43,4.53-12.09,9-24.19,13.57-36.27,3-8,5.85-16.15,9.27-24,2.7-6.2,7.35-10.61,14.31-12.1C222,28,233.5,34.82,233.35,46c-.1,8-1.48,16.05-2.4,24.06-.36,3.13-1,6.22-1.58,9.6-.31-1.61-.2-3.22-.93-4.2a6.14,6.14,0,0,0-3.55-2c-2.55-.54-4.27.83-4.62,3.33-.12.85.87,1.86,1.5,3.06a20.6,20.6,0,0,0-1.56,3.69c-.74,3,1.07,4.91,4.18,4.57,2.85-.31,3.58.59,3.05,3.68-.81,4.76-1.62,9.51-2.4,14.27a100.22,100.22,0,0,0-1.59,14.23c1.13-2,2.28-3.89,3.4-5.84,4.13-7.14,7.84-14.57,12.5-21.35,4.42-6.45,10.64-10.6,18.36-9.07s13.67,7.1,14.69,14.4a60.1,60.1,0,0,1-1.33,21.72c-6.86,30.56-13.35,61.21-20.43,91.72-5,21.46-13.81,41.24-28.45,58a106.4,106.4,0,0,1-49.44,32.14,113.14,113.14,0,0,1-29.5,5.24,5.88,5.88,0,0,1-3.71-1.52,5.56,5.56,0,0,0-7.71.18,4.2,4.2,0,0,1-2.66,1.3c-12.67-1-25-3.79-36.47-9.23a164.56,164.56,0,0,1-19.62-10.68C54.45,275.3,40,259.09,28,240.51c-7-11-13.71-22.12-18.67-34.2-2.72-6.64-5.62-13.26-7.61-20.13C-1,176.71-.9,167.06,4.7,158.52c6.06-9.26,16.85-13.27,28.94-6.65,7.66,4.19,13.36,10.66,18.52,17.54,5.55,7.4,10.81,15,16.26,22.49a22.47,22.47,0,0,0,2.82,2.78ZM229.12,242.4c0-1.55,0-2.33,0-3.11,0-5.74.31-11.25,2.13-17,3.8-12,6.59-24.3,9.38-36.57q8.31-36.6,16.1-73.32c.72-3.41.53-7,.48-10.55a3.37,3.37,0,0,0-1.88-2.3c-.51-.22-1.78.55-2.27,1.2a78.72,78.72,0,0,0-5.29,7.81c-5.65,10-11.12,20.06-16.75,30.05-3.42,6.06-6.92,12.07-10.55,18a46.27,46.27,0,0,1-5.89,8.09c-3.55,3.67-8.9,3.17-11.52-1.15a11.28,11.28,0,0,1-1.51-6.94c2.19-15.61,4.62-31.18,7.11-46.75,2.8-17.5,5.78-35,8.59-52.49A76.56,76.56,0,0,0,218,47.7a3,3,0,0,0-1.45-2.23,2.59,2.59,0,0,0-2.23.9,18,18,0,0,0-2.69,4.53Q195.91,93,180.27,135.08c-1.34,3.6-2.54,7.28-4.17,10.74-1.29,2.72-3.43,4.72-6.93,4.68-.25-1.26-.46-2.28-.78-3.85l-6.06,1.2c-2.12-2.08-2.13-5.46-2.31-8.63-.89-15.76-1.64-31.52-2.42-47.28-1-21.08-2.06-42.17-3.16-63.25a34.23,34.23,0,0,0-1.15-7.26c-.74-2.63-1.54-5.58-5-5.81-1.82-.13-4.73,3.74-5.28,6.61q-4.83,25.4-9.62,50.8-5.85,30.94-11.72,61.88c-1.14,5.93-7.46,8.88-12.19,5.4a12.17,12.17,0,0,1-4.06-6.2C99,111,92.82,87.79,86.37,64.67,83.94,56,82.67,46.89,77.79,39c-2.4-3.9-6.11-4.37-8.1-.32-1.42,2.89-2.67,6.47-2.31,9.54C69.26,64.33,71.54,80.43,74,96.5,75.78,108.68,78.18,120.77,80,133c2.51,16.45,4.88,32.93,7,49.43.62,4.83,1,10,.14,14.68-2.35,12.56-14.87,18.54-25.42,9.65-4.3-3.62-7.88-8.19-11.34-12.68-4.5-5.85-8.24-12.3-12.9-18a60.11,60.11,0,0,0-11.21-10.39c-4.11-3-8.29-1.31-9.55,3.64-.75,3-1.38,6.42-.65,9.29a141.51,141.51,0,0,0,6.63,19.86,177.7,177.7,0,0,0,18.43,33.65,6.62,6.62,0,0,1,1.38,5.45c-.64,3.39.73,4.57,4.34,4.79a3.64,3.64,0,0,1,2.32,1.42A130,130,0,0,0,72.88,268c12.56,10.06,26.43,17.6,42.13,21.37a97.31,97.31,0,0,0,50-1.14c23-6.5,41-19.73,53.87-39.88C221.25,244.65,223.12,240.53,229.12,242.4Z"/></g></g></svg>