<svg xmlns="http://www.w3.org/2000/svg" viewBox="0 0 244 207"><defs><style>.cls-1{fill:#f52f57;}</style></defs><g id="Calque_2" data-name="Calque 2"><g id="logo_sidaction" data-name="logo sidaction"><path class="cls-1" d="M216,207c-25.2-8.76-43.72-26.59-61.28-45.59-3-3.27-5.55-4.4-10.12-3.88-38.52,4.4-75.35-.64-108.78-21.61C19,125.37,6.25,111.26,1.44,91.26.94,89.18.48,87.09,0,85V75a12,12,0,0,0,.75-2.34c1.47-12.9,7.4-23.68,16-33.13C33.82,20.68,55.87,10.68,80.09,5.09,90.56,2.67,101.35,1.65,112,0h20c1.28.27,2.54.58,3.83.82,13,2.38,26.36,3.82,39.09,7.35,20.5,5.67,38.6,16,53.06,32.06,9,10,13.88,21.71,16,34.77v9c-2.87,7.36-5,15.13-8.77,22-7.69,13.92-19.25,24.52-31.78,34.12-1.59,1.22-3.28,3.8-3.1,5.57.62,6,1.28,12.29,3.32,18C209.49,179.81,220.42,193,230,207Zm-18.77-23.72.87-1c-1.82-3.9-3.69-7.78-5.45-11.71a54.79,54.79,0,0,1-4.24-32.15c.55-3.33,2.13-5.14,4.75-6.91,13-8.77,23.88-19.56,32-33.13,8.43-14.07,7.55-27.89-.73-41.47-8.14-13.37-20.15-22.56-34.11-29.06C150.56,9.32,109.73,8.23,68.38,21.64,50.87,27.33,35.26,36.43,23.53,51.09,9.33,68.84,9,90.38,23.48,107.85a86.11,86.11,0,0,0,18.8,17c25.5,16.71,54.13,22.31,84.19,21.43,9.47-.28,18.91-1.62,28.37-2.29a5.72,5.72,0,0,1,4.12,1.44c7,7.72,13.53,15.92,20.85,23.34C185.11,174.08,191.39,178.46,197.23,183.28Z"/></g></g></svg>