<svg xmlns="http://www.w3.org/2000/svg" viewBox="0 0 170.16 233.67"><defs><style>.cls-1{fill:#e2001a;}</style></defs><g id="Calque_2" data-name="Calque 2"><g id="logo_sidaction" data-name="logo sidaction"><path id="path3135" class="cls-1" d="M96.11,161.76a535.59,535.59,0,0,0,38.27-47.69c12.09-16.88,20.21-42.49,19.63-58.5C152.46,12.06,123.39,2.32,95.53.25c-23.11-1.72-66,4-70.71,62.9C22.18,96.06,40.1,130.75,67,161.21c-17.31,17-38.9,35.91-67,56.88,4.86,6.27,9.76,10.6,16.72,15.58A584.23,584.23,0,0,0,81.9,176.85a323.45,323.45,0,0,0,73.25,53.21c6.07-2.27,13.39-9.45,15-15.9-32.28-19-56.25-36.32-74-52.4m-50-95.82C45.28,39.67,65.3,17,92,19.06c23.92,1.89,41.25,11.31,40.82,39.19-.25,16.41-10,38.82-22.59,54.62-8.24,10.38-17.64,21.67-29.18,34-27.94-30.41-34.13-56.37-34.9-80.91"/></g></g></svg>