<svg xmlns="http://www.w3.org/2000/svg" viewBox="0 0 237.83 212.22"><defs><style>.cls-1{fill:#f52f57;}</style></defs><g id="Calque_2" data-name="Calque 2"><g id="logo_sidaction" data-name="logo sidaction"><path class="cls-1" d="M118.89,31.43c.42-.64.67-1,.85-1.31C128.74,11.63,143.67,1.9,164,.36c14.52-1.1,28.52,1,41.2,8.56,21.65,12.9,33.21,31.71,32.59,57.36-.48,19.87-6.94,37.91-16.91,54.85-10.78,18.33-24.75,34-40.41,48.24a311.75,311.75,0,0,1-57.82,41.73,6.72,6.72,0,0,1-7.42,0,312.29,312.29,0,0,1-57.66-41.59c-14.82-13.44-28.1-28.22-38.7-45.28-9.19-14.8-15.8-30.6-18-48C-.9,62.57-.33,49.08,6.2,36.6,16.62,16.7,33.11,4.85,55.25,1.08a70.84,70.84,0,0,1,29.56,1C100,6,110.71,15.33,117.73,29.16Zm10.63,84.63v-12C128.22,105.93,128.3,114.24,129.52,116.06Z"/><path class="cls-1" d="M129.52,116.06c-1.22-1.82-1.3-10.13,0-12Z"/></g></g></svg>