<svg xmlns="http://www.w3.org/2000/svg" viewBox="0 0 319.01 331.51"><defs><style>.cls-1{fill:#e2001a;}</style></defs><g id="Calque_2" data-name="Calque 2"><g id="logo_sidaction" data-name="logo sidaction"><path class="cls-1" d="M181,254c4.54.63,8.74,1.39,13,1.78,13.49,1.25,26.48-.58,38.66-6.77,11.14-5.66,19.84-14.07,26.84-24.31a94,94,0,0,0,16.45-45.11,10.18,10.18,0,0,0-9.12-11.19c-6.06-.6-10.87,3-11.73,9.09a82.77,82.77,0,0,1-9.68,29.74,59.57,59.57,0,0,1-14.24,17.35c-1.64-7.19-3.3-14-4.72-20.8-3-14.44,2.34-26.57,15.17-34,18.37-10.6,45.52-6.25,53.46,20.48a70.74,70.74,0,0,1,2.1,29.54c-.69,5.37-1.47,10.75-2.64,16-1.23,5.54-2.94,11-4.49,16.44-1.65,5.75.95,11.35,6.27,13.35a10.37,10.37,0,0,0,13.87-6.79c2.3-7.83,4.51-15.73,6.13-23.72,3.14-15.49,4.07-31.12.24-46.64-5.43-22-18.31-37.24-40.68-43.4a3.84,3.84,0,0,1-3.1-3c-3-10-7.78-19.24-15.28-26.59-19.57-19.16-42.78-24.31-68.91-16.88-17,4.85-31.7,14.29-46.07,24.26-10,6.94-19.91,14.1-30.13,20.74a46.6,46.6,0,0,1-12.86,5.57c-4.87,1.33-8.36-2.85-6.87-7.67A18.21,18.21,0,0,1,95,136.2c6-8.16,12.17-16.22,18.31-24.29,8.13-10.69,16.72-21.07,24.36-32.1,8.54-12.32,13.28-26.09,12.53-41.4-.86-17.52-13.31-33.17-30.44-36.9C99.26-3,81,2.71,65.06,15.93,51.93,26.81,43.51,41.12,36.81,56.55a11.7,11.7,0,0,0-1,3.85,10.38,10.38,0,0,0,8.08,10.79c5,1.24,9.73-1.21,12.19-5.89,3.72-7.07,7.13-14.39,11.61-21,10-14.7,23.56-23.51,42-23.1A19.3,19.3,0,0,1,128.3,35.47c2.52,8.76.2,16.87-3.55,24.7A105.83,105.83,0,0,1,111.6,80.35C102.93,91.2,94,101.83,85.34,112.7c-5.71,7.2-10.8,14.81-13.3,23.85a27,27,0,0,0,31.74,33.62,59.73,59.73,0,0,0,20.66-9c12.05-8.08,23.83-16.57,35.82-24.72s24.48-15.67,39-18.61c16-3.23,30.22.41,42.22,11.64A38.52,38.52,0,0,1,250.91,144c-.48.17-.64.24-.81.28-13.22,2.67-24.73,8.53-33.58,18.85-12,14-14.37,30.13-10.35,47.62,1.78,7.7,3.65,15.37,5.47,23.06-7.21,1.84-21.24,1.14-27.73-1.47.1-1,.2-2,.31-3.09,1-9.5,1.63-19,.19-28.52-1.59-10.48-5.8-19.38-16.36-23.54-14.69-5.79-28.89-2.37-36.53,13.05-2.24,4.51-3.69,9.42-5.29,14.21-1,2.89-1.54,5.92-2.18,8.46-6.82-.85-13.23-1.94-19.68-2.39C85.73,209.2,69,214.26,54.46,226.17,33.33,243.53,26.24,274,38,298c8,16.28,21.17,25.26,39.56,24.22s33.28-9.62,43.92-24.92c8.44-12.13,12.64-26,15.88-40.19a20.93,20.93,0,0,0,.81-6,10.29,10.29,0,0,0-10-9.66c-5.4-.31-9.84,3.23-11,8.85-2,9.4-4.56,18.64-8.65,27.4-5.26,11.23-13.47,19-25.62,22.44-11.67,3.28-21.34-1.16-26.26-12.24-7.52-16.92-.73-38,15.48-48.46,15.18-9.78,31.43-9.57,48-5.07,7.87,2.14,15.56,5,23.34,7.48,6,1.91,11.69-.77,13.69-6.35s-.82-11.47-6.8-13.69l-5.83-2.17a39.71,39.71,0,0,1,.91-4.57c1.71-5.4,3.37-10.82,5.35-16.12,1-2.77,3.42-3.42,6.28-3,3.75.6,5.17,3.16,6,6.32,1.83,7.23,1.16,14.56.34,21.8-1.61,14.32-3.73,28.59-5.34,42.92-1.29,11.44-1.77,22.93.75,34.3,2.91,13.08,9.79,23,22.83,27.75,6.65,2.43,13.57,2.66,20.55,2.4,17.82-.64,31.61-11.11,36.81-28.16,3.72-12.19,3.27-24.61,1.64-37.06a10.48,10.48,0,0,0-9.49-9,10.15,10.15,0,0,0-10.76,7,22.08,22.08,0,0,0-.33,7.62c.65,7.84,1,15.65-.82,23.39-1.64,6.86-5.21,12.06-12.37,14a34.94,34.94,0,0,1-15.09.62,13.37,13.37,0,0,1-11.26-9.73,39.61,39.61,0,0,1-1.89-8.56C177.57,279,179.24,266.53,181,254ZM0,178.44a31.49,31.49,0,0,0,31.9,31.72,10.53,10.53,0,0,0,.51-21,18.49,18.49,0,0,1-4.19-.73,10.35,10.35,0,0,1,3-20.15c6.32-.18,10.34,3.91,11,11.17a10.24,10.24,0,0,0,7.54,9.31,10.42,10.42,0,0,0,11.23-3.51c2.85-3.37,2.53-7.34,2-11.2-2.22-16.27-17.21-28.23-33.66-27A31.71,31.71,0,0,0,0,178.44Zm186.72-131c-8.3-.05-14.48,6-14.49,14.14A14.14,14.14,0,0,0,186.4,75.87,14.41,14.41,0,0,0,201,61.64,14.07,14.07,0,0,0,186.72,47.45Zm72.53,44.38a14.3,14.3,0,1,0,28.59-.18,13.82,13.82,0,0,0-14.13-13.9C265.43,77.69,259.24,83.72,259.25,91.83Z"/><path class="cls-1" d="M181,254c-1.72,12.57-3.39,25-2.31,37.61a39.61,39.61,0,0,0,1.89,8.56,13.37,13.37,0,0,0,11.26,9.73,34.94,34.94,0,0,0,15.09-.62c7.16-1.95,10.73-7.15,12.37-14,1.86-7.74,1.47-15.55.82-23.39a22.08,22.08,0,0,1,.33-7.62,10.15,10.15,0,0,1,10.76-7,10.48,10.48,0,0,1,9.49,9c1.63,12.45,2.08,24.87-1.64,37.06-5.2,17.05-19,27.52-36.81,28.16-7,.26-13.9,0-20.55-2.4-13-4.78-19.92-14.67-22.83-27.75-2.52-11.37-2-22.86-.75-34.3,1.61-14.33,3.73-28.6,5.34-42.92.82-7.24,1.49-14.57-.34-21.8-.81-3.16-2.23-5.72-6-6.32-2.86-.46-5.24.19-6.28,3-2,5.3-3.64,10.72-5.35,16.12a39.71,39.71,0,0,0-.91,4.57l5.83,2.17c6,2.22,8.84,8,6.8,13.69s-7.73,8.26-13.69,6.35c-7.78-2.5-15.47-5.34-23.34-7.48-16.6-4.5-32.85-4.71-48,5.07-16.21,10.44-23,31.54-15.48,48.46,4.92,11.08,14.59,15.52,26.26,12.24,12.15-3.41,20.36-11.21,25.62-22.44,4.09-8.76,6.63-18,8.65-27.4,1.21-5.62,5.65-9.16,11-8.85a10.29,10.29,0,0,1,10,9.66,20.93,20.93,0,0,1-.81,6c-3.24,14.2-7.44,28.06-15.88,40.19-10.64,15.3-25.44,23.87-43.92,24.92S46,314.27,38,298c-11.79-24-4.7-54.46,16.43-71.82,14.5-11.91,31.27-17,49.91-15.65,6.45.45,12.86,1.54,19.68,2.39.64-2.54,1.21-5.57,2.18-8.46,1.6-4.79,3-9.7,5.29-14.21,7.64-15.42,21.84-18.84,36.53-13.05,10.56,4.16,14.77,13.06,16.36,23.54,1.44,9.5.8,19-.19,28.52-.11,1.05-.21,2.1-.31,3.09,6.49,2.61,20.52,3.31,27.73,1.47-1.82-7.69-3.69-15.36-5.47-23.06-4-17.49-1.6-33.67,10.35-47.62,8.85-10.32,20.36-16.18,33.58-18.85.17,0,.33-.11.81-.28a38.52,38.52,0,0,0-9.42-14.54c-12-11.23-26.24-14.87-42.22-11.64-14.53,2.94-27,10.43-39,18.61s-23.77,16.64-35.82,24.72a59.73,59.73,0,0,1-20.66,9A27,27,0,0,1,72,136.55c2.5-9,7.59-16.65,13.3-23.85C94,101.83,102.93,91.2,111.6,80.35a105.83,105.83,0,0,0,13.15-20.18c3.75-7.83,6.07-15.94,3.55-24.7a19.3,19.3,0,0,0-18.53-14.24c-18.47-.41-32,8.4-42,23.1-4.48,6.58-7.89,13.9-11.61,21-2.46,4.68-7.2,7.13-12.19,5.89A10.38,10.38,0,0,1,35.86,60.4a11.7,11.7,0,0,1,1-3.85c6.7-15.43,15.12-29.74,28.25-40.62C81,2.71,99.26-3,119.8,1.51c17.13,3.73,29.58,19.38,30.44,36.9.75,15.31-4,29.08-12.53,41.4-7.64,11-16.23,21.41-24.36,32.1C107.21,120,101.06,128,95,136.2a18.21,18.21,0,0,0-2.44,5.31c-1.49,4.82,2,9,6.87,7.67a46.6,46.6,0,0,0,12.86-5.57c10.22-6.64,20.11-13.8,30.13-20.74,14.37-10,29-19.41,46.07-24.26,26.13-7.43,49.34-2.28,68.91,16.88,7.5,7.35,12.24,16.55,15.28,26.59a3.84,3.84,0,0,0,3.1,3c22.37,6.16,35.25,21.41,40.68,43.4,3.83,15.52,2.9,31.15-.24,46.64-1.62,8-3.83,15.89-6.13,23.72a10.37,10.37,0,0,1-13.87,6.79c-5.32-2-7.92-7.6-6.27-13.35,1.55-5.46,3.26-10.9,4.49-16.44,1.17-5.28,1.95-10.66,2.64-16a70.74,70.74,0,0,0-2.1-29.54c-7.94-26.73-35.09-31.08-53.46-20.48-12.83,7.39-18.18,19.52-15.17,34,1.42,6.82,3.08,13.61,4.72,20.8a59.57,59.57,0,0,0,14.24-17.35A82.77,82.77,0,0,0,255,177.45c.86-6.12,5.67-9.69,11.73-9.09a10.18,10.18,0,0,1,9.12,11.19,94,94,0,0,1-16.45,45.11c-7,10.24-15.7,18.65-26.84,24.31-12.18,6.19-25.17,8-38.66,6.77C189.7,255.35,185.5,254.59,181,254Z"/><path class="cls-1" d="M0,178.44A31.71,31.71,0,0,1,29.28,147c16.45-1.22,31.44,10.74,33.66,27,.53,3.86.85,7.83-2,11.2a10.42,10.42,0,0,1-11.23,3.51,10.24,10.24,0,0,1-7.54-9.31c-.63-7.26-4.65-11.35-11-11.17a10.35,10.35,0,0,0-3,20.15,18.49,18.49,0,0,0,4.19.73,10.53,10.53,0,0,1-.51,21A31.49,31.49,0,0,1,0,178.44Z"/><path class="cls-1" d="M186.72,47.45A14.07,14.07,0,0,1,201,61.64,14.41,14.41,0,0,1,186.4,75.87a14.14,14.14,0,0,1-14.17-14.28C172.24,53.43,178.42,47.4,186.72,47.45Z"/><path class="cls-1" d="M259.25,91.83c0-8.11,6.18-14.14,14.46-14.08a13.82,13.82,0,0,1,14.13,13.9,14.3,14.3,0,1,1-28.59.18Z"/></g></g></svg>