<svg xmlns="http://www.w3.org/2000/svg" viewBox="0 0 137.66 156.06"><defs><style>.cls-1{fill:#ecdf49;}</style></defs><g id="Calque_2" data-name="Calque 2"><g id="logo_sidaction" data-name="logo sidaction"><path class="cls-1" d="M.28,156.06C-1.75,123.87,8.2,97.41,34.84,78,8.29,58.72-1.67,32.24.22,0H135.59c7.95,20.64-7.78,57.41-33.59,77.93,26.52,19.36,36.64,45.87,34.52,78.13Zm122-146.27H14.15c.67,6,.87,11.71,2,17.22,3.22,16,9.57,30.83,24.44,38.83,7.67,4.13,8.71,8.88,8.3,16-.16,2.7-.87,4.08-3.4,5.21-9.11,4.06-15.92,10.77-20.93,19.32C17.3,118.68,14.35,132,14.69,146.25H122.63c-.63-5.91-.81-11.58-1.9-17.06-3.29-16.55-10.13-31.32-25.46-39.88C89.43,86.05,87,82.66,88,76.37a6.39,6.39,0,0,0,0-2c-.47-2.92,1.11-4.08,3.46-5.66,5.73-3.87,11.81-7.74,16.21-12.92C118.77,42.78,122.13,26.91,122.29,9.79Z"/><path class="cls-1" d="M30.28,136.3h75.94a46.82,46.82,0,0,0-20.51-33.61,29.26,29.26,0,0,1-.06-49.4A38.71,38.71,0,0,0,99,39.4H38.14l-.88,1.46c4.94,4.31,10,8.5,14.77,13,3.47,3.23,8.26,6.26,9.59,10.32,4.08,12.45,4.53,31-10.79,39.12C38.37,109.84,32.85,122.29,30.28,136.3Z"/><path class="cls-1" d="M30.28,136.3c2.57-14,8.09-26.46,20.55-33C66.15,95.17,65.7,76.59,61.62,64.14,60.29,60.08,55.5,57.05,52,53.82c-4.79-4.46-9.83-8.65-14.77-13l.88-1.46H99A38.71,38.71,0,0,1,85.65,53.29a29.26,29.26,0,0,0,.06,49.4,46.82,46.82,0,0,1,20.51,33.61Z"/></g></g></svg>