<svg xmlns="http://www.w3.org/2000/svg" viewBox="0 0 169.95 169.63"><defs><style>.cls-1{fill:#00c421;}</style></defs><g id="Calque_2" data-name="Calque 2"><g id="logo_sidaction" data-name="logo sidaction"><path class="cls-1" d="M162.8,149.67a30.9,30.9,0,0,1,3.69-4.35c.74-.63,2.21-.4,3.35-.56,0,1,.36,2.52-.18,3.07Q159,158.75,148.11,169.38c-.55.53-2.06.06-3.12.05.1-1-.16-2.36.39-3a46.2,46.2,0,0,1,4.67-4.07l-22-21.93c-2,2.49-4.13,5.61-6.71,8.35-1,1.06-2.95,1.23-4.47,1.8.64-1.49,1.23-3,2-4.46.28-.57.87-1,2.53-2.75a72.53,72.53,0,0,1-7-5.49c-21.62-21.5-43.12-43.12-64.78-64.57-2.67-2.64-3.55-5-2.77-8.79.7-3.4,2.46-6.74-2.62-10.13-4.1-2.74-5.56-9.37-8.31-14.2-1.58-2.79-3-5.86-5.18-8.1-9-9.15-18.26-18-27.4-27A12.07,12.07,0,0,1,0,0,28.54,28.54,0,0,1,2.74,2.12c9.17,9,17.85,18.52,27.62,26.77,6.69,5.65,14.88,9.53,22.41,14.18.87.53,2.31.76,2.61,1.49,1.23,3,3.22,3.47,6,2.53,6-2,10.27,0,14.79,4.6,21.52,22.06,43.49,43.69,65.31,65.46.93.94,1.91,1.82,2.78,2.65a7.48,7.48,0,0,0,1.12-.32c1.85-1,3.69-2,5.53-2.93-.92,1.86-1.54,4-2.85,5.53a85.54,85.54,0,0,1-7,6.69ZM47.28,53.21l1.6.33c0,3.6.51,7.29-.15,10.76s0,5.86,2.59,8.35c8.5,8.23,16.76,16.71,25.13,25.07Q99.06,120.33,121.8,143L143,121.57a3.59,3.59,0,0,0-.5-.84Q107.2,85.38,71.73,50.14c-1.32-1.3-4-1.54-6.1-1.68-4-.25-8.1-.07-12.93-.07Z"/></g></g></svg>