<svg xmlns="http://www.w3.org/2000/svg" viewBox="0 0 347 346.04"><defs><style>.cls-1{fill:#0025cb;}</style></defs><g id="Calque_2" data-name="Calque 2"><g id="logo_sidaction" data-name="logo sidaction"><path class="cls-1" d="M228.66,83.24a126.41,126.41,0,0,0-43.2-14.68c-34.21-4.91-65.52,2.55-93.67,22.5-6.86,4.86-13,10.8-19.17,16.54-4.81,4.47-7.42,4.92-12.5.57q-19-16.28-37.91-32.72c-4-3.46-4.18-7.82-.49-11.81A195.69,195.69,0,0,1,182.93.68a190.18,190.18,0,0,1,73.24,21.09A185.75,185.75,0,0,1,296.85,50c1.71,1.57,3,1,4.51.27Q318.2,42.55,335,34.81c3.08-1.42,6.1-2.46,9.15,0s3,5.46,2.66,8.9c-1.37,12.89-2.57,25.8-3.84,38.7-1.29,13.12-2.61,26.24-3.88,39.37-1,10.43-1.92,20.87-2.9,31.3-1.14,12-2.18,24-3.49,36-.74,6.78-6.69,9.09-12.46,5q-26.43-18.79-52.81-37.67Q234.33,132.71,201.22,109c-6.41-4.59-5.77-10.62,1.46-14C211.14,91.19,219.63,87.36,228.66,83.24Z"/><path class="cls-1" d="M118.41,262.71A119.94,119.94,0,0,0,153.52,276c38.68,7.86,73.9-.17,105.5-23.7,5.67-4.22,10.67-9.37,15.81-14.27,4.21-4,7.25-4.36,11.73-.51q19.13,16.41,38.13,33c4.31,3.76,4.3,8,.27,12.27C297.4,312.22,264,331.8,224.72,341a194,194,0,0,1-67.13,3.62,191.42,191.42,0,0,1-86.51-32.29,240.36,240.36,0,0,1-20.22-15.8c-2-1.72-3.38-1.75-5.52-.75-11.3,5.23-22.67,10.31-34,15.55-3,1.38-5.73,2-8.51-.18s-3.09-5-2.78-8.23c1.8-18.28,3.52-36.57,5.32-54.85,1.5-15.25,3.12-30.49,4.61-45.74,1.44-14.81,2.8-29.62,4.18-44.43.3-3.17,1.15-6,4.35-7.45,2.82-1.25,5.42-.65,7.91,1.13q59.62,42.65,119.28,85.26c6.46,4.62,5.89,10.67-1.27,14C135.91,254.79,127.32,258.66,118.41,262.71Z"/></g></g></svg>